<?xml version="1.0" encoding="UTF-8" standalone="no" ?>
<!DOCTYPE svg PUBLIC "-//W3C//DTD SVG 1.1//EN" "http://www.w3.org/Graphics/SVG/1.1/DTD/svg11.dtd">
<svg xmlns="http://www.w3.org/2000/svg" xmlns:xlink="http://www.w3.org/1999/xlink" version="1.1" viewBox="0 0 628 94.02" xml:space="preserve">
<desc>Created with Fabric.js 5.3.0</desc>
<defs>
</defs>
<g transform="matrix(1 0 0 1 82.695 43.34)" id="-F0GGIpKnizoE2cUTEVMU"  >
<path style="stroke: none; stroke-width: 0; stroke-dasharray: none; stroke-linecap: butt; stroke-dashoffset: 0; stroke-linejoin: miter; stroke-miterlimit: 4; fill: rgb(255,255,255); fill-rule: nonzero; opacity: 1;"  transform=" translate(-82.695, -43.34)" d="M 105.96 66.8 L 105.14999999999999 64.66 L 86.32 14.689999999999998 L 86.25999999999999 14.529999999999998 C 84.71999999999998 10.299999999999997 83.63999999999999 8.189999999999998 83.02999999999999 8.189999999999998 C 82.71999999999998 8.189999999999998 81.94999999999999 9.879999999999997 80.71999999999998 13.259999999999998 L 77.65999999999998 22.18 L 68.61999999999998 48.51 L 64.01999999999998 61.93 L 63.26999999999998 64.12 L 58.54999999999998 77.4 C 59.23999999999998 77.78 59.94999999999998 78.15 60.66999999999998 78.49000000000001 L 66.29999999999998 61.93000000000001 L 91.66999999999999 61.93000000000001 L 97.27999999999999 76.96000000000001 C 100.85999999999999 74.88000000000001 104.08999999999999 72.25000000000001 106.83999999999999 69.18 L 105.93999999999998 66.80000000000001 Z M 66.32 61.93 L 77.67999999999999 29.04 L 78.55 26.52 L 80.48 31.73 L 81.7 35 L 86.71000000000001 48.49 L 90.91000000000001 59.800000000000004 L 91.70000000000002 61.93000000000001 L 66.33000000000001 61.93000000000001 Z" stroke-linecap="round" />
</g>
<g transform="matrix(1 0 0 1 61.055 59.71)" id="6m59rOUcUlhj1guxWhen5"  >
<path style="stroke: none; stroke-width: 0; stroke-dasharray: none; stroke-linecap: butt; stroke-dashoffset: 0; stroke-linejoin: miter; stroke-miterlimit: 4; fill: rgb(255,255,255); fill-rule: nonzero; opacity: 1;"  transform=" translate(-61.055, -59.71)" d="M 119.53 61.57 C 119.53 61.57 119.53 61.57 119.54 61.57 C 119.84 61.54 120.14 61.51 120.43 61.47 C 121.09 61.379999999999995 122.06 60.449999999999996 122.11000000000001 59.85 C 122.11000000000001 59.81 122.11000000000001 59.76 122.11000000000001 59.72 C 122.11000000000001 59.67 122.11000000000001 59.629999999999995 122.11000000000001 59.589999999999996 C 122.07000000000001 58.989999999999995 121.10000000000001 58.06999999999999 120.43 57.97 C 120.13000000000001 57.93 119.84 57.89 119.54 57.87 C 119.54 57.87 119.54 57.87 119.53 57.87 C 118.71000000000001 57.75 117.84 57.76 117.01 57.769999999999996 C 116.82000000000001 57.769999999999996 116.63000000000001 57.769999999999996 116.44000000000001 57.769999999999996 C 115.93 57.769999999999996 115.41000000000001 57.779999999999994 114.9 57.79 C 112.85000000000001 57.82 110.80000000000001 57.85 108.76 57.88 C 102.82000000000001 57.96 37.260000000000005 58.910000000000004 31.320000000000007 59 C 21.28000000000001 59.15 11.230000000000008 59.29 1.1900000000000084 59.44 C 0.7900000000000084 59.44 0.40000000000000835 59.47 8.43769498715119e-15 59.71 C 0.40000000000000846 59.95 0.7900000000000085 59.980000000000004 1.1900000000000084 59.980000000000004 C 11.230000000000008 60.13 21.28000000000001 60.27 31.320000000000007 60.42 C 37.260000000000005 60.510000000000005 102.82000000000001 61.45 108.76 61.54 C 110.81 61.57 112.86 61.6 114.9 61.63 C 115.4 61.63 115.9 61.64 116.4 61.650000000000006 C 116.60000000000001 61.650000000000006 116.80000000000001 61.650000000000006 117 61.650000000000006 C 117.83 61.660000000000004 118.69 61.67000000000001 119.52 61.550000000000004 Z M 109.41 59.72 C 109.41 59.28 111.72 58.93 114.58 58.93 C 117.44 58.93 119.75 59.28 119.75 59.72 C 119.75 60.16 117.44 60.51 114.58 60.51 C 111.72 60.51 109.41 60.16 109.41 59.72 Z" stroke-linecap="round" />
</g>
<g transform="matrix(1 0 0 1 74.0125372794 43.2834857659)" id="rRzRkHrEcU4YJFqzS3yTG"  >
<path style="stroke: none; stroke-width: 0; stroke-dasharray: none; stroke-linecap: butt; stroke-dashoffset: 0; stroke-linejoin: miter; stroke-miterlimit: 4; fill: rgb(255,255,255); fill-rule: nonzero; opacity: 1;"  transform=" translate(-74.0125372794, -43.2834857659)" d="M 114.94 62.72 C 114.1 64.42 113.14999999999999 66.07 112.09 67.65 C 111.03 69.23 109.86 70.73 108.59 72.16000000000001 C 106.06 75.01 103.14 77.52000000000001 99.94 79.62 C 96.73 81.71000000000001 93.24 83.36 89.59 84.53 C 85.94 85.7 82.12 86.36 78.28 86.53 C 70.6 86.87 62.81 85.1 56.019999999999996 81.45 C 49.22 77.81 43.42999999999999 72.31 39.39999999999999 65.73 C 37.38999999999999 62.43000000000001 35.82999999999999 58.870000000000005 34.75999999999999 55.160000000000004 C 33.68999999999999 51.45 33.12999999999999 47.6 33.07999999999999 43.75 C 33.01999999999999 39.89 33.50999999999999 36.04 34.44999999999999 32.3 C 34.94999999999999 30.439999999999998 35.51999999999999 28.599999999999998 36.25999999999999 26.819999999999997 L 36.529999999999994 26.149999999999995 C 36.62 25.929999999999996 36.73 25.709999999999994 36.82999999999999 25.489999999999995 L 37.42999999999999 24.179999999999996 C 37.63999999999999 23.749999999999996 37.86999999999999 23.329999999999995 38.08999999999999 22.899999999999995 L 38.41999999999999 22.259999999999994 C 38.539999999999985 22.049999999999994 38.65999999999999 21.839999999999993 38.77999999999999 21.639999999999993 L 39.509999999999984 20.399999999999995 L 40.29999999999998 19.189999999999994 C 40.429999999999986 18.989999999999995 40.55999999999998 18.789999999999996 40.69999999999998 18.589999999999993 L 41.11999999999998 18.009999999999994 C 41.399999999999984 17.619999999999994 41.679999999999986 17.229999999999993 41.969999999999985 16.849999999999994 C 42.569999999999986 16.099999999999994 43.149999999999984 15.339999999999995 43.79999999999998 14.629999999999994 L 44.27999999999998 14.089999999999993 C 44.439999999999976 13.909999999999993 44.59999999999998 13.729999999999993 44.76999999999998 13.559999999999993 L 45.76999999999998 12.529999999999994 C 47.13999999999998 11.189999999999994 48.56999999999998 9.899999999999995 50.09999999999998 8.759999999999994 L 50.66999999999998 8.319999999999995 C 50.85999999999998 8.169999999999995 51.05999999999998 8.039999999999996 51.259999999999984 7.899999999999995 L 52.43999999999998 7.079999999999995 C 52.83999999999998 6.819999999999995 53.249999999999986 6.569999999999995 53.649999999999984 6.309999999999995 L 54.259999999999984 5.929999999999995 C 54.469999999999985 5.809999999999995 54.679999999999986 5.699999999999995 54.889999999999986 5.579999999999996 L 56.139999999999986 4.8799999999999955 L 57.429999999999986 4.239999999999996 C 57.639999999999986 4.139999999999996 57.859999999999985 4.029999999999996 58.069999999999986 3.9299999999999957 L 58.72999999999998 3.6399999999999957 C 59.16999999999998 3.4499999999999957 59.59999999999998 3.2499999999999956 60.04999999999998 3.069999999999996 L 61.389999999999986 2.559999999999996 C 61.609999999999985 2.479999999999996 61.829999999999984 2.379999999999996 62.05999999999999 2.309999999999996 L 62.73999999999999 2.089999999999996 L 63.41999999999999 1.8699999999999959 C 63.649999999999984 1.7999999999999958 63.86999999999999 1.719999999999996 64.1 1.659999999999996 L 65.47999999999999 1.289999999999996 C 69.17 0.34 72.99 -0.05 76.77 0 L 75.35 0.07 L 74.64 0.1 C 74.4 0.11 74.17 0.14 73.93 0.16 L 72.52000000000001 0.30000000000000004 C 72.05000000000001 0.36000000000000004 71.58000000000001 0.44000000000000006 71.12 0.5 C 70.18 0.61 69.26 0.8300000000000001 68.33 1 C 67.87 1.1 67.41 1.22 66.95 1.33 C 66.49000000000001 1.4400000000000002 66.03 1.55 65.58 1.7000000000000002 L 64.23 2.1100000000000003 C 63.78 2.2500000000000004 63.34 2.4200000000000004 62.900000000000006 2.58 L 62.230000000000004 2.8200000000000003 C 62.010000000000005 2.9000000000000004 61.790000000000006 3.0000000000000004 61.57000000000001 3.08 L 60.260000000000005 3.62 C 59.830000000000005 3.81 59.410000000000004 4.0200000000000005 58.980000000000004 4.21 L 58.34 4.51 C 58.13 4.609999999999999 57.92 4.7299999999999995 57.720000000000006 4.84 L 56.470000000000006 5.5 L 55.260000000000005 6.22 L 54.650000000000006 6.58 L 54.06 6.97 C 53.67 7.2299999999999995 53.27 7.4799999999999995 52.89 7.75 L 51.75 8.58 C 51.56 8.72 51.37 8.85 51.19 9 L 50.64 9.44 C 49.160000000000004 10.59 47.79 11.89 46.49 13.219999999999999 L 45.53 14.249999999999998 C 45.370000000000005 14.419999999999998 45.22 14.599999999999998 45.07 14.779999999999998 L 44.61 15.309999999999997 C 43.99 16.009999999999998 43.44 16.769999999999996 42.86 17.499999999999996 C 42.58 17.879999999999995 42.32 18.259999999999998 42.05 18.649999999999995 L 41.65 19.219999999999995 C 41.519999999999996 19.409999999999997 41.4 19.609999999999996 41.269999999999996 19.809999999999995 L 40.519999999999996 20.999999999999996 L 39.83 22.219999999999995 C 39.72 22.419999999999995 39.6 22.629999999999995 39.489999999999995 22.829999999999995 L 39.17999999999999 23.459999999999994 C 38.96999999999999 23.879999999999995 38.75999999999999 24.289999999999992 38.559999999999995 24.709999999999994 L 37.989999999999995 25.989999999999995 C 37.89999999999999 26.199999999999996 37.78999999999999 26.409999999999997 37.709999999999994 26.629999999999995 L 37.459999999999994 27.279999999999994 C 36.75999999999999 29.009999999999994 36.23 30.799999999999994 35.75999999999999 32.60999999999999 C 34.88999999999999 36.239999999999995 34.44999999999999 39.96999999999999 34.54999999999999 43.69999999999999 C 34.62999999999999 47.429999999999986 35.16999999999999 51.139999999999986 36.21999999999999 54.719999999999985 C 37.25999999999999 58.29999999999998 38.779999999999994 61.72999999999998 40.72999999999999 64.89999999999998 C 42.65999999999999 68.07999999999998 45.01999999999999 71.00999999999998 47.71999999999999 73.56999999999998 C 50.40999999999999 76.13999999999997 53.459999999999994 78.34999999999998 56.71999999999999 80.13999999999999 C 57.529999999999994 80.59999999999998 58.37999999999999 80.97999999999999 59.21999999999999 81.38999999999999 C 60.059999999999995 81.79999999999998 60.919999999999995 82.14999999999999 61.78999999999999 82.48999999999998 C 63.529999999999994 83.14999999999998 65.30999999999999 83.71999999999998 67.13 84.14999999999998 C 68.94 84.57999999999998 70.78999999999999 84.89999999999998 72.64999999999999 85.08999999999997 C 74.50999999999999 85.27999999999997 76.38 85.35999999999997 78.24999999999999 85.30999999999997 C 85.71999999999998 85.11999999999998 93.15999999999998 82.92999999999998 99.54999999999998 78.96999999999997 C 102.74999999999999 76.99999999999997 105.69999999999999 74.60999999999997 108.28999999999998 71.86999999999998 C 109.58999999999997 70.49999999999997 110.79999999999998 69.04999999999998 111.90999999999998 67.51999999999998 C 113.02999999999999 65.98999999999998 114.03999999999998 64.38999999999999 114.94999999999999 62.72999999999998 Z" stroke-linecap="round" />
</g>
<g transform="matrix(1 0 0 1 129.78 44.94)" id="NqQHvTkiSHOXepMB6hukA"  >
<path style="stroke: none; stroke-width: 0; stroke-dasharray: none; stroke-linecap: butt; stroke-dashoffset: 0; stroke-linejoin: miter; stroke-miterlimit: 4; fill: rgb(255,255,255); fill-rule: nonzero; opacity: 1;"  transform=" translate(-129.78, -44.94)" d="M 126.06 65.46 C 124.16 63.879999999999995 123.22 61.35999999999999 123.22 57.89999999999999 L 123.22 31.97999999999999 L 118.11 31.25999999999999 L 118.11 29.81999999999999 L 123.22 29.81999999999999 L 123.22 23.83999999999999 L 130.42 22.03999999999999 L 130.42 29.81999999999999 L 139.77999999999997 29.81999999999999 L 139.77999999999997 31.25999999999999 L 130.41999999999996 31.97999999999999 L 130.41999999999996 57.75999999999999 C 130.41999999999996 62.849999999999994 132.23999999999995 65.38999999999999 135.88999999999996 65.38999999999999 C 136.65999999999997 65.38999999999999 137.38999999999996 65.26999999999998 138.08999999999995 65.02999999999999 C 138.78999999999994 64.78999999999999 139.33999999999995 64.54999999999998 139.74999999999994 64.30999999999999 C 140.15999999999994 64.07 140.40999999999994 63.89999999999999 140.50999999999993 63.80999999999999 L 141.44999999999993 64.96 C 139.28999999999994 66.88 136.69999999999993 67.83999999999999 133.66999999999993 67.83999999999999 C 130.63999999999993 67.83999999999999 127.96999999999993 67.04999999999998 126.06999999999994 65.46 Z" stroke-linecap="round" />
</g>
<g transform="matrix(1 0 0 1 159.945 48.505)" id="qPxVRtWWnCcB2uOwF-pg9"  >
<path style="stroke: none; stroke-width: 0; stroke-dasharray: none; stroke-linecap: butt; stroke-dashoffset: 0; stroke-linejoin: miter; stroke-miterlimit: 4; fill: rgb(255,255,255); fill-rule: nonzero; opacity: 1;"  transform=" translate(-159.945, -48.505)" d="M 152.09 65.42 C 149.21 63.81 146.93 61.54 145.25 58.620000000000005 C 143.57 55.690000000000005 142.73 52.31 142.73 48.470000000000006 C 142.73 44.63000000000001 143.56 41.260000000000005 145.20999999999998 38.35000000000001 C 146.86999999999998 35.45000000000001 149.09999999999997 33.19000000000001 151.90999999999997 31.58000000000001 C 154.71999999999997 29.97000000000001 157.84999999999997 29.17000000000001 161.30999999999997 29.17000000000001 C 164.32999999999998 29.17000000000001 167.04999999999998 29.84000000000001 169.45 31.19000000000001 C 171.85 32.53000000000001 173.72 34.39000000000001 175.07 36.77000000000001 C 176.41 39.15000000000001 177.10999999999999 41.87000000000001 177.16 44.94000000000001 L 150.66 44.94000000000001 L 150.66 52.070000000000014 C 150.66 56.29000000000001 151.60999999999999 59.710000000000015 153.5 62.33000000000001 C 155.4 64.95000000000002 158.14 66.25000000000001 161.74 66.25000000000001 C 165.05 66.25000000000001 167.98000000000002 65.31000000000002 170.52 63.44000000000001 C 173.06 61.570000000000014 174.62 59.140000000000015 175.20000000000002 56.170000000000016 L 176.86 56.170000000000016 C 176.19000000000003 59.72000000000001 174.48000000000002 62.55000000000002 171.75 64.67000000000002 C 169.01 66.78000000000002 165.68 67.84000000000002 161.74 67.84000000000002 C 158.19 67.84000000000002 154.97 67.04000000000002 152.09 65.43000000000002 Z M 169.23000000000002 43.14 C 169.23000000000002 38.96 168.58 35.86 167.29000000000002 33.82 C 165.99 31.78 163.98000000000002 30.76 161.24 30.76 C 158.02 30.76 155.53 31.89 153.75 34.14 C 151.97 36.4 150.97 39.4 150.73 43.14 L 169.23 43.14 Z" stroke-linecap="round" />
</g>
<g transform="matrix(1 0 0 1 190.28 38.31)" id="slfRASPBeHQMwTegfYZO5"  >
<path style="stroke: none; stroke-width: 0; stroke-dasharray: none; stroke-linecap: butt; stroke-dashoffset: 0; stroke-linejoin: miter; stroke-miterlimit: 4; fill: rgb(255,255,255); fill-rule: nonzero; opacity: 1;"  transform=" translate(-190.28, -38.31)" d="M 181.46 67.11 L 181.46 65.67 L 186.86 64.95 L 186.86 11.67 L 181.46 10.95 L 181.46 9.51 L 194.06 9.51 L 194.06 64.95 L 199.1 65.67 L 199.1 67.11 L 181.45999999999998 67.11 Z" stroke-linecap="round" />
</g>
<g transform="matrix(1 0 0 1 211.27 39.5)" id="SplOBTtgPcFgYkDqUC5Oy"  >
<path style="stroke: none; stroke-width: 0; stroke-dasharray: none; stroke-linecap: butt; stroke-dashoffset: 0; stroke-linejoin: miter; stroke-miterlimit: 4; fill: rgb(255,255,255); fill-rule: nonzero; opacity: 1;"  transform=" translate(-211.27, -39.5)" d="M 202.63 67.11 L 202.63 65.67 L 207.67 64.95 L 207.67 32.050000000000004 L 202.63 31.330000000000005 L 202.63 29.890000000000004 L 214.87 29.890000000000004 L 214.87 64.95 L 219.91 65.67 L 219.91 67.11 L 202.63 67.11 Z M 206.81 20.060000000000002 C 205.85 19.12 205.37 17.980000000000004 205.37 16.64 C 205.37 15.299999999999997 205.84 14.17 206.77 13.260000000000002 C 207.71 12.350000000000001 208.87 11.89 210.26000000000002 11.89 C 211.56000000000003 11.89 212.66000000000003 12.350000000000001 213.57000000000002 13.260000000000002 C 214.48000000000002 14.170000000000002 214.94000000000003 15.3 214.94000000000003 16.64 C 214.94000000000003 17.98 214.48000000000002 19.12 213.57000000000002 20.060000000000002 C 212.66000000000003 21.000000000000004 211.55 21.46 210.26000000000002 21.46 C 208.97000000000003 21.46 207.76000000000002 20.990000000000002 206.8 20.060000000000002 Z" stroke-linecap="round" />
</g>
<g transform="matrix(1 0 0 1 241.735 48.505)" id="SpGmHOGlb4A_OkEHlzjuI"  >
<path style="stroke: none; stroke-width: 0; stroke-dasharray: none; stroke-linecap: butt; stroke-dashoffset: 0; stroke-linejoin: miter; stroke-miterlimit: 4; fill: rgb(255,255,255); fill-rule: nonzero; opacity: 1;"  transform=" translate(-241.735, -48.505)" d="M 233.88 65.42 C 231 63.81 228.72 61.54 227.04 58.620000000000005 C 225.35999999999999 55.690000000000005 224.51999999999998 52.31 224.51999999999998 48.470000000000006 C 224.51999999999998 44.63000000000001 225.35 41.260000000000005 226.99999999999997 38.35000000000001 C 228.65999999999997 35.45000000000001 230.88999999999996 33.19000000000001 233.69999999999996 31.58000000000001 C 236.50999999999996 29.97000000000001 239.63999999999996 29.17000000000001 243.09999999999997 29.17000000000001 C 246.11999999999998 29.17000000000001 248.83999999999997 29.84000000000001 251.23999999999995 31.19000000000001 C 253.63999999999996 32.53000000000001 255.50999999999996 34.39000000000001 256.85999999999996 36.77000000000001 C 258.19999999999993 39.15000000000001 258.9 41.87000000000001 258.94999999999993 44.94000000000001 L 232.44999999999993 44.94000000000001 L 232.44999999999993 52.070000000000014 C 232.44999999999993 56.29000000000001 233.39999999999992 59.710000000000015 235.28999999999994 62.33000000000001 C 237.18999999999994 64.95000000000002 239.92999999999992 66.25000000000001 243.52999999999994 66.25000000000001 C 246.83999999999995 66.25000000000001 249.76999999999995 65.31000000000002 252.30999999999995 63.44000000000001 C 254.84999999999994 61.570000000000014 256.40999999999997 59.140000000000015 256.98999999999995 56.170000000000016 L 258.65 56.170000000000016 C 257.97999999999996 59.72000000000001 256.27 62.55000000000002 253.53999999999996 64.67000000000002 C 250.79999999999995 66.78000000000002 247.46999999999997 67.84000000000002 243.52999999999997 67.84000000000002 C 239.97999999999996 67.84000000000002 236.75999999999996 67.04000000000002 233.87999999999997 65.43000000000002 Z M 251.01999999999998 43.14 C 251.01999999999998 38.96 250.36999999999998 35.86 249.07999999999998 33.82 C 247.77999999999997 31.78 245.76999999999998 30.76 243.02999999999997 30.76 C 239.80999999999997 30.76 237.31999999999996 31.89 235.53999999999996 34.14 C 233.75999999999996 36.4 232.75999999999996 39.4 232.51999999999995 43.14 L 251.01999999999995 43.14 Z" stroke-linecap="round" />
</g>
<g transform="matrix(1 0 0 1 278.44 48.14)" id="GQdOuXt2HpuzMlxNcO_FS"  >
<path style="stroke: none; stroke-width: 0; stroke-dasharray: none; stroke-linecap: butt; stroke-dashoffset: 0; stroke-linejoin: miter; stroke-miterlimit: 4; fill: rgb(255,255,255); fill-rule: nonzero; opacity: 1;"  transform=" translate(-278.44, -48.14)" d="M 263.76 65.67 L 268.8 64.95 L 268.8 31.98 L 263.76 31.26 L 263.76 29.82 L 276 29.82 L 276 35.36 C 279.02 31.23 282.43 29.169999999999998 286.22 29.169999999999998 C 288.04 29.169999999999998 289.65000000000003 29.639999999999997 291.04 30.569999999999997 C 292.43 31.509999999999998 293.13 32.839999999999996 293.13 34.56999999999999 C 293.13 35.81999999999999 292.71999999999997 36.85999999999999 291.90999999999997 37.699999999999996 C 291.09 38.54 290.01 38.959999999999994 288.66999999999996 38.959999999999994 C 287.12999999999994 38.959999999999994 285.87999999999994 38.35999999999999 284.92999999999995 37.16 C 285.4599999999999 36.489999999999995 285.71999999999997 35.769999999999996 285.71999999999997 35 C 285.71999999999997 34.18 285.44 33.52 284.89 33.02 C 284.34 32.52 283.59999999999997 32.260000000000005 282.69 32.260000000000005 C 281.68 32.260000000000005 280.65 32.730000000000004 279.59 33.660000000000004 C 278.53 34.6 277.33 36.050000000000004 275.98999999999995 38.02 L 275.98999999999995 64.95 L 281.74999999999994 65.67 L 281.74999999999994 67.11 L 263.74999999999994 67.11 L 263.74999999999994 65.67 Z" stroke-linecap="round" />
</g>
<g transform="matrix(1 0 0 1 336.48 37.59)" id="kRnu0qRGZCT0sKsoOnynv"  >
<path style="stroke: none; stroke-width: 0; stroke-dasharray: none; stroke-linecap: butt; stroke-dashoffset: 0; stroke-linejoin: miter; stroke-miterlimit: 4; fill: rgb(255,255,255); fill-rule: nonzero; opacity: 1;"  transform=" translate(-336.48, -37.59)" d="M 308.83 67.11 L 308.83 65.6 L 315.89 62.71999999999999 L 336.7 8.069999999999993 L 337.84999999999997 8.069999999999993 L 357.51 64.52 L 364.13 65.6 L 364.13 67.11 L 342.96 67.11 L 342.96 65.6 L 348.85999999999996 64.66 L 342.73999999999995 47.599999999999994 L 323.59 47.599999999999994 L 317.76 62.71999999999999 L 324.24 65.6 L 324.24 67.11 L 308.83 67.11 Z M 324.16999999999996 46.09 L 342.23999999999995 46.09 L 333.59999999999997 20.750000000000004 L 324.16999999999996 46.09 Z" stroke-linecap="round" />
</g>
<g transform="matrix(1 0 0 1 379.24 48.14)" id="J0f98j00oj37Bo3Yj9JX9"  >
<path style="stroke: none; stroke-width: 0; stroke-dasharray: none; stroke-linecap: butt; stroke-dashoffset: 0; stroke-linejoin: miter; stroke-miterlimit: 4; fill: rgb(255,255,255); fill-rule: nonzero; opacity: 1;"  transform=" translate(-379.24, -48.14)" d="M 364.56 65.67 L 369.6 64.95 L 369.6 31.98 L 364.56 31.26 L 364.56 29.82 L 376.8 29.82 L 376.8 35.36 C 379.82 31.23 383.23 29.169999999999998 387.02000000000004 29.169999999999998 C 388.84000000000003 29.169999999999998 390.45000000000005 29.639999999999997 391.84000000000003 30.569999999999997 C 393.23 31.509999999999998 393.93 32.839999999999996 393.93 34.56999999999999 C 393.93 35.81999999999999 393.52 36.85999999999999 392.71 37.699999999999996 C 391.89 38.54 390.81 38.959999999999994 389.46999999999997 38.959999999999994 C 387.92999999999995 38.959999999999994 386.67999999999995 38.35999999999999 385.72999999999996 37.16 C 386.25999999999993 36.489999999999995 386.52 35.769999999999996 386.52 35 C 386.52 34.18 386.24 33.52 385.69 33.02 C 385.14 32.52 384.4 32.260000000000005 383.49 32.260000000000005 C 382.48 32.260000000000005 381.45 32.730000000000004 380.39 33.660000000000004 C 379.33 34.6 378.13 36.050000000000004 376.78999999999996 38.02 L 376.78999999999996 64.95 L 382.54999999999995 65.67 L 382.54999999999995 67.11 L 364.54999999999995 67.11 L 364.54999999999995 65.67 Z" stroke-linecap="round" />
</g>
<g transform="matrix(1 0 0 1 407.41 44.94)" id="WkSQPleSYQkFksQg0uKMx"  >
<path style="stroke: none; stroke-width: 0; stroke-dasharray: none; stroke-linecap: butt; stroke-dashoffset: 0; stroke-linejoin: miter; stroke-miterlimit: 4; fill: rgb(255,255,255); fill-rule: nonzero; opacity: 1;"  transform=" translate(-407.41, -44.94)" d="M 403.69 65.46 C 401.79 63.879999999999995 400.85 61.35999999999999 400.85 57.89999999999999 L 400.85 31.97999999999999 L 395.74 31.25999999999999 L 395.74 29.81999999999999 L 400.85 29.81999999999999 L 400.85 23.83999999999999 L 408.05 22.03999999999999 L 408.05 29.81999999999999 L 417.41 29.81999999999999 L 417.41 31.25999999999999 L 408.05 31.97999999999999 L 408.05 57.75999999999999 C 408.05 62.849999999999994 409.87 65.38999999999999 413.52000000000004 65.38999999999999 C 414.29 65.38999999999999 415.02000000000004 65.26999999999998 415.72 65.02999999999999 C 416.42 64.78999999999999 416.97 64.54999999999998 417.38000000000005 64.30999999999999 C 417.7900000000001 64.07 418.0400000000001 63.89999999999999 418.14000000000004 63.80999999999999 L 419.08000000000004 64.96 C 416.92 66.88 414.33000000000004 67.83999999999999 411.30000000000007 67.83999999999999 C 408.2700000000001 67.83999999999999 405.6000000000001 67.04999999999998 403.70000000000005 65.46 Z" stroke-linecap="round" />
</g>
<g transform="matrix(1 0 0 1 464.97 38.67)" id="nuvsV-YrNLHZk9OtrhNp7"  >
<path style="stroke: none; stroke-width: 0; stroke-dasharray: none; stroke-linecap: butt; stroke-dashoffset: 0; stroke-linejoin: miter; stroke-miterlimit: 4; fill: rgb(255,255,255); fill-rule: nonzero; opacity: 1;"  transform=" translate(-464.97, -38.67)" d="M 475.29 65.89 C 473.95000000000005 64.59 473.03000000000003 62.39 472.55 59.27 L 471.18 49.620000000000005 C 470.7 46.36000000000001 469.58 43.800000000000004 467.83 41.95 C 466.08 40.1 463.34999999999997 39.18 459.65999999999997 39.18 L 454.03999999999996 39.18 L 454.03999999999996 64.52 L 460.65999999999997 65.6 L 460.65999999999997 67.11 L 439.48999999999995 67.11 L 439.48999999999995 65.6 L 446.10999999999996 64.52 L 446.10999999999996 12.1 L 439.48999999999995 11.09 L 439.48999999999995 9.51 L 459.65 9.51 C 467.46999999999997 9.51 473.14 10.73 476.64 13.18 C 480.14 15.629999999999999 481.9 19.35 481.9 24.34 C 481.9 32.6 476.90999999999997 37.37 466.91999999999996 38.67 L 466.91999999999996 39.1 C 470.61999999999995 39.63 473.58 40.95 475.80999999999995 43.06 C 478.03999999999996 45.17 479.44999999999993 47.980000000000004 480.0199999999999 51.480000000000004 L 480.9599999999999 57.67 C 481.3399999999999 60.36 481.7899999999999 62.18 482.2899999999999 63.14 C 482.7899999999999 64.1 483.5699999999999 64.58 484.6299999999999 64.58 C 485.3499999999999 64.58 486.1199999999999 64.35 486.9299999999999 63.9 C 487.7499999999999 63.44 488.5099999999999 62.86 489.2299999999999 62.14 L 490.44999999999993 63.44 C 489.05999999999995 65.02 487.61999999999995 66.14999999999999 486.12999999999994 66.82 C 484.63999999999993 67.49 483.0299999999999 67.83 481.30999999999995 67.83 C 478.61999999999995 67.83 476.59999999999997 67.17999999999999 475.25999999999993 65.89 Z M 462.11 37.45 C 465.61 37.45 468.34000000000003 36.38 470.28000000000003 34.25 C 472.22 32.11 473.20000000000005 28.96 473.20000000000005 24.78 L 473.20000000000005 23.27 C 473.20000000000005 15.3 468.69000000000005 11.32 459.66 11.32 L 454.04 11.32 L 454.04 37.46 L 462.1 37.46 Z" stroke-linecap="round" />
</g>
<g transform="matrix(1 0 0 1 510.71 48.5)" id="TybZmJJmYveESCGPYAwyd"  >
<path style="stroke: none; stroke-width: 0; stroke-dasharray: none; stroke-linecap: butt; stroke-dashoffset: 0; stroke-linejoin: miter; stroke-miterlimit: 4; fill: rgb(255,255,255); fill-rule: nonzero; opacity: 1;"  transform=" translate(-510.71, -48.5)" d="M 501.28 65.42 C 498.45 63.81 496.2 61.53 494.54999999999995 58.58 C 492.88999999999993 55.629999999999995 492.06999999999994 52.26 492.06999999999994 48.46 C 492.06999999999994 44.660000000000004 492.8999999999999 41.31 494.54999999999995 38.38 C 496.21 35.45 498.44999999999993 33.18 501.28 31.580000000000002 C 504.10999999999996 29.970000000000002 507.26 29.17 510.71 29.17 C 514.16 29.17 517.31 29.970000000000002 520.14 31.580000000000002 C 522.97 33.190000000000005 525.22 35.46 526.87 38.38 C 528.53 41.31 529.35 44.67 529.35 48.46 C 529.35 52.25 528.52 55.620000000000005 526.87 58.58 C 525.21 61.53 522.97 63.81 520.14 65.42 C 517.31 67.03 514.16 67.83 510.71 67.83 C 507.26 67.83 504.10999999999996 67.03 501.28 65.42 Z M 518.74 62.36 C 520.54 59.769999999999996 521.44 56.34 521.44 52.06 L 521.44 44.86 C 521.44 40.59 520.5400000000001 37.17 518.74 34.6 C 516.94 32.03 514.26 30.75 510.71000000000004 30.75 C 507.1600000000001 30.75 504.48 32.03 502.68000000000006 34.6 C 500.88000000000005 37.17 499.9800000000001 40.59 499.9800000000001 44.86 L 499.9800000000001 52.06 C 499.9800000000001 56.33 500.88000000000005 59.760000000000005 502.68000000000006 62.36 C 504.4800000000001 64.95 507.1600000000001 66.25 510.71000000000004 66.25 C 514.26 66.25 516.94 64.95 518.74 62.36 Z" stroke-linecap="round" />
</g>
<g transform="matrix(1 0 0 1 550.155 59.02)" id="Jc_XEJRoti_jGeqvUvZWF"  >
<path style="stroke: none; stroke-width: 0; stroke-dasharray: none; stroke-linecap: butt; stroke-dashoffset: 0; stroke-linejoin: miter; stroke-miterlimit: 4; fill: rgb(255,255,255); fill-rule: nonzero; opacity: 1;"  transform=" translate(-550.155, -59.02)" d="M 533.46 86.26 C 531.9200000000001 85.01 531.1600000000001 83.33 531.1600000000001 81.22 C 531.1600000000001 79.78 531.58 78.62 532.4200000000001 77.73 C 533.2600000000001 76.84 534.3000000000001 76.4 535.5500000000001 76.4 C 536.46 76.4 537.2800000000001 76.59 538.0000000000001 76.98 C 538.7200000000001 77.36 539.3000000000001 77.94 539.7300000000001 78.71000000000001 C 539.0100000000001 79.72000000000001 538.6500000000001 80.77000000000001 538.6500000000001 81.88000000000001 C 538.6500000000001 82.84 538.96 83.63000000000001 539.5900000000001 84.26 C 540.2100000000002 84.88000000000001 541.0100000000001 85.2 541.9700000000001 85.2 C 543.1200000000001 85.2 544.1200000000001 84.82000000000001 544.9600000000002 84.05 C 545.8000000000002 83.28 546.5600000000002 81.94 547.2300000000001 80.02 L 551.5500000000002 67.64 L 534.8500000000001 32.07 L 530.0300000000001 31.35 L 530.0300000000001 29.91 L 547.96 29.91 L 547.96 31.35 L 542.9200000000001 32.21 L 554.94 57.91 L 563.5100000000001 33.14 L 557.32 31.34 L 557.32 29.9 L 570.2800000000001 29.9 L 570.2800000000001 31.34 L 565.3800000000001 33.14 L 549.2500000000001 80.00999999999999 C 548.2400000000001 82.83999999999999 547.0300000000001 84.91 545.6100000000001 86.19999999999999 C 544.1900000000002 87.49999999999999 542.1600000000001 88.13999999999999 539.5300000000001 88.13999999999999 C 537.0300000000001 88.13999999999999 535.0200000000001 87.51999999999998 533.4800000000001 86.26999999999998 Z" stroke-linecap="round" />
</g>
<g transform="matrix(1 0 0 1 590.27 48.5)" id="HjtMiJB2nVN3Wk009vV7f"  >
<path style="stroke: none; stroke-width: 0; stroke-dasharray: none; stroke-linecap: butt; stroke-dashoffset: 0; stroke-linejoin: miter; stroke-miterlimit: 4; fill: rgb(255,255,255); fill-rule: nonzero; opacity: 1;"  transform=" translate(-590.27, -48.5)" d="M 574.36 65.42 C 572.39 63.81 571.41 61.42 571.41 58.260000000000005 C 571.41 53.75000000000001 573.31 50.540000000000006 577.1 48.650000000000006 C 580.89 46.75000000000001 585.28 45.81 590.28 45.81 L 595.1 45.81 L 595.1 40.27 C 595.1 37.77 594.82 35.84 594.27 34.470000000000006 C 593.72 33.10000000000001 592.87 32.14000000000001 591.71 31.590000000000007 C 590.5600000000001 31.040000000000006 589 30.76000000000001 587.0300000000001 30.76000000000001 C 584.7700000000001 30.76000000000001 583.09 31.20000000000001 581.9900000000001 32.09000000000001 C 580.8800000000001 32.98000000000001 580.3300000000002 34.17000000000001 580.3300000000002 35.65000000000001 C 580.3300000000002 37.04000000000001 581.0000000000001 37.95000000000001 582.3500000000001 38.390000000000015 C 582.3500000000001 39.59000000000002 581.8900000000001 40.65000000000001 580.9800000000001 41.56000000000002 C 580.0700000000002 42.47000000000001 578.9900000000001 42.930000000000014 577.7400000000001 42.930000000000014 C 576.4000000000001 42.930000000000014 575.3200000000002 42.56000000000002 574.5000000000001 41.81000000000002 C 573.6800000000001 41.070000000000014 573.2800000000001 39.930000000000014 573.2800000000001 38.390000000000015 C 573.2800000000001 35.610000000000014 574.6700000000001 33.37000000000002 577.46 31.690000000000015 C 580.24 30.010000000000016 583.72 29.170000000000016 587.9000000000001 29.170000000000016 C 597.5000000000001 29.170000000000016 602.3000000000001 33.350000000000016 602.3000000000001 41.70000000000002 L 602.3000000000001 62.29000000000002 C 602.3000000000001 63.35000000000002 602.5300000000001 64.15000000000002 602.98 64.70000000000002 C 603.44 65.25000000000001 604.1 65.53000000000002 604.96 65.53000000000002 C 605.7800000000001 65.53000000000002 606.4200000000001 65.25000000000001 606.9000000000001 64.70000000000002 C 607.3800000000001 64.15000000000002 607.6200000000001 63.390000000000015 607.6200000000001 62.430000000000014 L 609.1300000000001 62.430000000000014 C 609.1300000000001 64.11000000000001 608.5900000000001 65.43 607.5100000000001 66.39000000000001 C 606.4300000000001 67.35000000000001 604.9300000000001 67.83000000000001 603.0100000000001 67.83000000000001 C 600.8000000000001 67.83000000000001 598.94 67.19000000000001 597.4300000000001 65.92000000000002 C 595.9200000000001 64.65000000000002 595.1400000000001 62.670000000000016 595.09 59.98000000000002 C 593.94 62.43000000000002 592.1700000000001 64.35000000000002 589.8000000000001 65.74000000000002 C 587.4300000000001 67.13000000000002 584.8000000000001 67.83000000000003 581.9200000000001 67.83000000000003 C 578.85 67.83000000000003 576.33 67.03000000000003 574.3600000000001 65.42000000000003 Z M 589.88 63.510000000000005 C 591.25 62.74 592.41 61.63 593.37 60.160000000000004 C 594.33 58.7 594.91 56.93000000000001 595.1 54.870000000000005 L 595.1 47.38 L 590.28 47.38 C 586.3399999999999 47.38 583.4 48.260000000000005 581.4599999999999 50.010000000000005 C 579.5199999999999 51.760000000000005 578.54 54.220000000000006 578.54 57.39000000000001 C 578.54 60.03000000000001 579.16 61.900000000000006 580.41 63.010000000000005 C 581.66 64.11 583.48 64.67 585.88 64.67 C 587.18 64.67 588.51 64.29 589.88 63.52 Z" stroke-linecap="round" />
</g>
<g transform="matrix(1 0 0 1 619.18 38.31)" id="pgYpAeVbuV8_ayyJkSGaG"  >
<path style="stroke: none; stroke-width: 0; stroke-dasharray: none; stroke-linecap: butt; stroke-dashoffset: 0; stroke-linejoin: miter; stroke-miterlimit: 4; fill: rgb(255,255,255); fill-rule: nonzero; opacity: 1;"  transform=" translate(-619.18, -38.31)" d="M 610.36 67.11 L 610.36 65.67 L 615.76 64.95 L 615.76 11.67 L 610.36 10.95 L 610.36 9.51 L 622.96 9.51 L 622.96 64.95 L 628 65.67 L 628 67.11 L 610.36 67.11 Z" stroke-linecap="round" />
</g>
<g transform="matrix(1 0 0 1 144.385 82.955)" id="6-kJqwns_uGm4QU3HDFem"  >
<path style="stroke: none; stroke-width: 0; stroke-dasharray: none; stroke-linecap: butt; stroke-dashoffset: 0; stroke-linejoin: miter; stroke-miterlimit: 4; fill: rgb(255,255,255); fill-rule: nonzero; opacity: 1;"  transform=" translate(-144.385, -82.955)" d="M 140.9 75.77 L 142.34 75.77 L 142.34 88.75 L 147.87 88.75 L 147.87 90.14 L 140.91 90.14 L 140.91 75.77 Z" stroke-linecap="round" />
</g>
<g transform="matrix(1 0 0 1 155.465 84.81)" id="lgjKTuBPjjnMT2XxSnwyt"  >
<path style="stroke: none; stroke-width: 0; stroke-dasharray: none; stroke-linecap: butt; stroke-dashoffset: 0; stroke-linejoin: miter; stroke-miterlimit: 4; fill: rgb(255,255,255); fill-rule: nonzero; opacity: 1;"  transform=" translate(-155.465, -84.81)" d="M 161 79.51 L 161 90.13000000000001 L 159.65 90.13000000000001 L 159.65 88.30000000000001 C 159.08 89.00000000000001 158.43 89.52000000000001 157.72 89.87 C 157.01 90.22 156.23 90.4 155.38 90.4 C 153.88 90.4 152.59 89.86 151.53 88.76 C 150.47 87.66000000000001 149.93 86.34 149.93 84.78 C 149.93 83.22 150.47 81.94 151.54000000000002 80.85 C 152.61000000000004 79.75999999999999 153.91000000000003 79.22 155.42000000000002 79.22 C 156.29000000000002 79.22 157.08 79.41 157.79000000000002 79.78 C 158.50000000000003 80.15 159.12000000000003 80.71000000000001 159.65000000000003 81.45 L 159.65000000000003 79.5 L 161.00000000000003 79.5 Z M 155.54 80.55000000000001 C 154.78 80.55000000000001 154.07999999999998 80.74000000000001 153.42999999999998 81.11000000000001 C 152.79 81.48000000000002 152.26999999999998 82.01000000000002 151.89 82.69000000000001 C 151.51 83.37000000000002 151.32 84.08000000000001 151.32 84.84000000000002 C 151.32 85.60000000000002 151.51 86.30000000000001 151.9 86.99000000000002 C 152.28 87.67000000000003 152.8 88.20000000000002 153.45000000000002 88.59000000000002 C 154.10000000000002 88.97000000000001 154.79000000000002 89.16000000000001 155.53000000000003 89.16000000000001 C 156.27000000000004 89.16000000000001 156.99000000000004 88.97000000000001 157.66000000000003 88.59000000000002 C 158.33 88.21000000000002 158.85000000000002 87.70000000000002 159.21000000000004 87.06000000000002 C 159.57000000000005 86.42000000000002 159.75000000000003 85.69000000000001 159.75000000000003 84.89000000000001 C 159.75000000000003 83.66000000000001 159.35000000000002 82.63000000000001 158.54000000000002 81.81000000000002 C 157.73000000000002 80.98000000000002 156.73000000000002 80.57000000000002 155.55 80.57000000000002 Z" stroke-linecap="round" />
</g>
<g transform="matrix(1 0 0 1 175.915 82.955)" id="zDEtRdxCSA9uuZ4T23vGc"  >
<path style="stroke: none; stroke-width: 0; stroke-dasharray: none; stroke-linecap: butt; stroke-dashoffset: 0; stroke-linejoin: miter; stroke-miterlimit: 4; fill: rgb(255,255,255); fill-rule: nonzero; opacity: 1;"  transform=" translate(-175.915, -82.955)" d="M 170.82 75.77 L 172.26 75.77 L 172.26 81.8 L 179.57 81.8 L 179.57 75.77 L 181.01 75.77 L 181.01 90.14 L 179.57 90.14 L 179.57 83.21000000000001 L 172.26 83.21000000000001 L 172.26 90.14000000000001 L 170.82 90.14000000000001 L 170.82 75.77000000000001 Z" stroke-linecap="round" />
</g>
<g transform="matrix(1 0 0 1 189.825 84.81)" id="5KZo4f-wKl-Jee-sPRsgF"  >
<path style="stroke: none; stroke-width: 0; stroke-dasharray: none; stroke-linecap: butt; stroke-dashoffset: 0; stroke-linejoin: miter; stroke-miterlimit: 4; fill: rgb(255,255,255); fill-rule: nonzero; opacity: 1;"  transform=" translate(-189.825, -84.81)" d="M 195.36 79.51 L 195.36 90.13000000000001 L 194.01000000000002 90.13000000000001 L 194.01000000000002 88.30000000000001 C 193.44000000000003 89.00000000000001 192.79000000000002 89.52000000000001 192.08 89.87 C 191.37 90.22 190.59 90.4 189.74 90.4 C 188.24 90.4 186.95000000000002 89.86 185.89000000000001 88.76 C 184.83 87.66000000000001 184.29000000000002 86.34 184.29000000000002 84.78 C 184.29000000000002 83.22 184.83 81.94 185.90000000000003 80.85 C 186.97000000000006 79.75999999999999 188.27000000000004 79.22 189.78000000000003 79.22 C 190.65000000000003 79.22 191.44000000000003 79.41 192.15000000000003 79.78 C 192.86000000000004 80.15 193.48000000000005 80.71000000000001 194.01000000000005 81.45 L 194.01000000000005 79.5 L 195.36000000000004 79.5 Z M 189.9 80.55000000000001 C 189.14000000000001 80.55000000000001 188.44 80.74000000000001 187.79 81.11000000000001 C 187.15 81.48000000000002 186.63 82.01000000000002 186.25 82.69000000000001 C 185.87 83.37000000000002 185.68 84.08000000000001 185.68 84.84000000000002 C 185.68 85.60000000000002 185.87 86.30000000000001 186.26000000000002 86.99000000000002 C 186.64000000000001 87.67000000000003 187.16000000000003 88.20000000000002 187.81000000000003 88.59000000000002 C 188.46000000000004 88.97000000000001 189.15000000000003 89.16000000000001 189.89000000000004 89.16000000000001 C 190.63000000000005 89.16000000000001 191.35000000000005 88.97000000000001 192.02000000000004 88.59000000000002 C 192.69000000000003 88.21000000000002 193.21000000000004 87.70000000000002 193.57000000000005 87.06000000000002 C 193.93000000000006 86.42000000000002 194.11000000000004 85.69000000000001 194.11000000000004 84.89000000000001 C 194.11000000000004 83.66000000000001 193.71000000000004 82.63000000000001 192.90000000000003 81.81000000000002 C 192.09000000000003 80.98000000000002 191.09000000000003 80.57000000000002 189.91000000000003 80.57000000000002 Z" stroke-linecap="round" />
</g>
<g transform="matrix(1 0 0 1 203.415 84.95)" id="t8p6jMOzMhHYIO4QMjZkV"  >
<path style="stroke: none; stroke-width: 0; stroke-dasharray: none; stroke-linecap: butt; stroke-dashoffset: 0; stroke-linejoin: miter; stroke-miterlimit: 4; fill: rgb(255,255,255); fill-rule: nonzero; opacity: 1;"  transform=" translate(-203.415, -84.95)" d="M 198.76 79.51 L 200.13 79.51 L 200.13 84.47 C 200.13 85.67999999999999 200.19 86.51 200.32999999999998 86.97 C 200.52999999999997 87.62 200.89999999999998 88.14 201.45 88.51 C 202 88.88000000000001 202.66 89.08 203.42 89.08 C 204.17999999999998 89.08 204.82999999999998 88.89999999999999 205.35999999999999 88.53 C 205.89 88.16000000000001 206.26 87.68 206.45999999999998 87.08 C 206.59999999999997 86.67 206.67 85.8 206.67 84.47 L 206.67 79.51 L 208.07 79.51 L 208.07 84.72 C 208.07 86.17999999999999 207.9 87.28999999999999 207.56 88.03 C 207.22 88.77000000000001 206.7 89.35 206.02 89.77 C 205.34000000000003 90.19 204.47 90.39999999999999 203.44 90.39999999999999 C 202.41 90.39999999999999 201.54 90.19 200.85 89.77 C 200.16 89.35 199.64 88.75999999999999 199.29999999999998 88.00999999999999 C 198.95999999999998 87.25999999999999 198.79 86.13 198.79 84.61999999999999 L 198.79 79.49999999999999 Z" stroke-linecap="round" />
</g>
<g transform="matrix(1 0 0 1 213.625 82.845)" id="pXuXGQf_vn1qKW3kIvGqE"  >
<path style="stroke: none; stroke-width: 0; stroke-dasharray: none; stroke-linecap: butt; stroke-dashoffset: 0; stroke-linejoin: miter; stroke-miterlimit: 4; fill: rgb(255,255,255); fill-rule: nonzero; opacity: 1;"  transform=" translate(-213.625, -82.845)" d="M 212.79 75.56 L 214.16 75.56 L 214.16 79.51 L 216.32999999999998 79.51 L 216.32999999999998 80.69000000000001 L 214.16 80.69000000000001 L 214.16 90.13000000000001 L 212.79 90.13000000000001 L 212.79 80.69000000000001 L 210.92 80.69000000000001 L 210.92 79.51 L 212.79 79.51 L 212.79 75.56 Z" stroke-linecap="round" />
</g>
<g transform="matrix(1 0 0 1 223.83 84.84)" id="zdW8PCUy3gBugesqaWV1H"  >
<path style="stroke: none; stroke-width: 0; stroke-dasharray: none; stroke-linecap: butt; stroke-dashoffset: 0; stroke-linejoin: miter; stroke-miterlimit: 4; fill: rgb(255,255,255); fill-rule: nonzero; opacity: 1;"  transform=" translate(-223.83, -84.84)" d="M 227.82 86.61 L 228.97 87.22 C 228.59 87.96 228.16 88.56 227.66 89.02 C 227.16 89.47999999999999 226.60999999999999 89.82 225.99 90.06 C 225.37000000000003 90.30000000000001 224.67000000000002 90.42 223.89000000000001 90.42 C 222.16000000000003 90.42 220.8 89.85000000000001 219.82000000000002 88.72 C 218.84000000000003 87.58999999999999 218.35000000000002 86.3 218.35000000000002 84.87 C 218.35000000000002 83.52000000000001 218.76000000000002 82.32000000000001 219.59000000000003 81.27000000000001 C 220.64000000000004 79.93 222.04000000000002 79.26 223.80000000000004 79.26 C 225.56000000000006 79.26 227.06000000000003 79.95 228.14000000000004 81.32000000000001 C 228.91000000000005 82.29 229.30000000000004 83.50000000000001 229.31000000000003 84.95 L 219.75000000000003 84.95 C 219.78000000000003 86.18 220.17000000000002 87.2 220.93000000000004 87.99000000000001 C 221.69000000000005 88.78000000000002 222.63000000000002 89.17000000000002 223.76000000000005 89.17000000000002 C 224.30000000000004 89.17000000000002 224.83000000000004 89.08000000000001 225.34000000000006 88.89000000000001 C 225.85000000000005 88.70000000000002 226.29000000000005 88.45000000000002 226.65000000000006 88.14000000000001 C 227.01000000000008 87.83000000000001 227.40000000000006 87.33000000000001 227.81000000000006 86.63000000000001 Z M 227.82 83.75 C 227.64 83.02 227.37 82.44 227.01999999999998 82 C 226.67 81.56 226.20999999999998 81.21 225.64 80.95 C 225.07 80.69000000000001 224.45999999999998 80.55 223.82999999999998 80.55 C 222.79 80.55 221.89 80.88 221.14 81.56 C 220.58999999999997 82.05 220.17999999999998 82.78 219.89999999999998 83.76 L 227.81999999999996 83.76 Z" stroke-linecap="round" />
</g>
<g transform="matrix(1 0 0 1 244.985 82.965)" id="zcOYuCDUl6IeRh_w2AjNZ"  >
<path style="stroke: none; stroke-width: 0; stroke-dasharray: none; stroke-linecap: butt; stroke-dashoffset: 0; stroke-linejoin: miter; stroke-miterlimit: 4; fill: rgb(255,255,255); fill-rule: nonzero; opacity: 1;"  transform=" translate(-244.985, -82.965)" d="M 252.01 78.44 L 250.88 79.31 C 250.26 78.5 249.5 77.88 248.63 77.46000000000001 C 247.76 77.04000000000002 246.79 76.83000000000001 245.74 76.83000000000001 C 244.59 76.83000000000001 243.53 77.11000000000001 242.56 77.66000000000001 C 241.59 78.21000000000001 240.83 78.95000000000002 240.29 79.88000000000001 C 239.74999999999997 80.81 239.48 81.85000000000001 239.48 83.01 C 239.48 84.76 240.07999999999998 86.22 241.28 87.39 C 242.48000000000002 88.56 244 89.15 245.83 89.15 C 247.84 89.15 249.52 88.36 250.88000000000002 86.79 L 252.01000000000002 87.65 C 251.29000000000002 88.56 250.4 89.27000000000001 249.33 89.76 C 248.26000000000002 90.25 247.06 90.51 245.74 90.51 C 243.23000000000002 90.51 241.24 89.67 239.79000000000002 88 C 238.57000000000002 86.59 237.96 84.88 237.96 82.88 C 237.96 80.78 238.70000000000002 79.00999999999999 240.17000000000002 77.57 C 241.64000000000001 76.13 243.49 75.41999999999999 245.71 75.41999999999999 C 247.05 75.41999999999999 248.26000000000002 75.68999999999998 249.34 76.21999999999998 C 250.42 76.74999999999999 251.31 77.48999999999998 252 78.44999999999999 Z" stroke-linecap="round" />
</g>
<g transform="matrix(1 0 0 1 260.195 84.83)" id="fohVDVTNP6efjRiZl6BRx"  >
<path style="stroke: none; stroke-width: 0; stroke-dasharray: none; stroke-linecap: butt; stroke-dashoffset: 0; stroke-linejoin: miter; stroke-miterlimit: 4; fill: rgb(255,255,255); fill-rule: nonzero; opacity: 1;"  transform=" translate(-260.195, -84.83)" d="M 260.2 79.24 C 261.84 79.24 263.19 79.83 264.27 81.02 C 265.25 82.1 265.74 83.38 265.74 84.86 C 265.74 86.34 265.22 87.64 264.19 88.75 C 263.15999999999997 89.86 261.83 90.42 260.2 90.42 C 258.57 90.42 257.24 89.87 256.2 88.75 C 255.17 87.64 254.64999999999998 86.34 254.64999999999998 84.86 C 254.64999999999998 83.38 255.14 82.11 256.12 81.03 C 257.2 79.84 258.56 79.24 260.2 79.24 Z M 260.2 80.58 C 259.06 80.58 258.09 81 257.27 81.84 C 256.45 82.68 256.03999999999996 83.7 256.03999999999996 84.89 C 256.03999999999996 85.66 256.22999999999996 86.37 256.59999999999997 87.04 C 256.96999999999997 87.71000000000001 257.47999999999996 88.22000000000001 258.10999999999996 88.58000000000001 C 258.73999999999995 88.94000000000001 259.43999999999994 89.12000000000002 260.19999999999993 89.12000000000002 C 260.9599999999999 89.12000000000002 261.6499999999999 88.94000000000001 262.2899999999999 88.58000000000001 C 262.9299999999999 88.22000000000001 263.4299999999999 87.71000000000001 263.7999999999999 87.04 C 264.1699999999999 86.38000000000001 264.3599999999999 85.66000000000001 264.3599999999999 84.89 C 264.3599999999999 83.7 263.9499999999999 82.68 263.1299999999999 81.84 C 262.3099999999999 81 261.33999999999986 80.58 260.1999999999999 80.58 Z" stroke-linecap="round" />
</g>
<g transform="matrix(1 0 0 1 273.245 84.95)" id="D5BCa6OfqXl2EUFkvt_bv"  >
<path style="stroke: none; stroke-width: 0; stroke-dasharray: none; stroke-linecap: butt; stroke-dashoffset: 0; stroke-linejoin: miter; stroke-miterlimit: 4; fill: rgb(255,255,255); fill-rule: nonzero; opacity: 1;"  transform=" translate(-273.245, -84.95)" d="M 268.59 79.51 L 269.96 79.51 L 269.96 84.47 C 269.96 85.67999999999999 270.02 86.51 270.15999999999997 86.97 C 270.35999999999996 87.62 270.72999999999996 88.14 271.28 88.51 C 271.83 88.88000000000001 272.48999999999995 89.08 273.25 89.08 C 274.01000000000005 89.08 274.66 88.89999999999999 275.19 88.53 C 275.71999999999997 88.16000000000001 276.09 87.68 276.29 87.08 C 276.43 86.67 276.5 85.8 276.5 84.47 L 276.5 79.51 L 277.9 79.51 L 277.9 84.72 C 277.9 86.17999999999999 277.72999999999996 87.28999999999999 277.39 88.03 C 277.05 88.77000000000001 276.53 89.35 275.84999999999997 89.77 C 275.16999999999996 90.19 274.29999999999995 90.39999999999999 273.27 90.39999999999999 C 272.24 90.39999999999999 271.37 90.19 270.68 89.77 C 269.99 89.35 269.47 88.75999999999999 269.13 88.00999999999999 C 268.78999999999996 87.25999999999999 268.62 86.13 268.62 84.61999999999999 L 268.62 79.49999999999999 Z" stroke-linecap="round" />
</g>
<g transform="matrix(1 0 0 1 283.455 82.845)" id="AQ_aV4f9ciIis99p0epdO"  >
<path style="stroke: none; stroke-width: 0; stroke-dasharray: none; stroke-linecap: butt; stroke-dashoffset: 0; stroke-linejoin: miter; stroke-miterlimit: 4; fill: rgb(255,255,255); fill-rule: nonzero; opacity: 1;"  transform=" translate(-283.455, -82.845)" d="M 282.62 75.56 L 283.99 75.56 L 283.99 79.51 L 286.16 79.51 L 286.16 80.69000000000001 L 283.99 80.69000000000001 L 283.99 90.13000000000001 L 282.62 90.13000000000001 L 282.62 80.69000000000001 L 280.75 80.69000000000001 L 280.75 79.51 L 282.62 79.51 L 282.62 75.56 Z" stroke-linecap="round" />
</g>
<g transform="matrix(1 0 0 1 293.185 84.95)" id="Wl1RThN-356_DYaJjeSPY"  >
<path style="stroke: none; stroke-width: 0; stroke-dasharray: none; stroke-linecap: butt; stroke-dashoffset: 0; stroke-linejoin: miter; stroke-miterlimit: 4; fill: rgb(255,255,255); fill-rule: nonzero; opacity: 1;"  transform=" translate(-293.185, -84.95)" d="M 288.53 79.51 L 289.9 79.51 L 289.9 84.47 C 289.9 85.67999999999999 289.96 86.51 290.09999999999997 86.97 C 290.29999999999995 87.62 290.66999999999996 88.14 291.21999999999997 88.51 C 291.77 88.88000000000001 292.42999999999995 89.08 293.19 89.08 C 293.95000000000005 89.08 294.6 88.89999999999999 295.13 88.53 C 295.65999999999997 88.16000000000001 296.03 87.68 296.23 87.08 C 296.37 86.67 296.44 85.8 296.44 84.47 L 296.44 79.51 L 297.84 79.51 L 297.84 84.72 C 297.84 86.17999999999999 297.66999999999996 87.28999999999999 297.33 88.03 C 296.99 88.77000000000001 296.46999999999997 89.35 295.78999999999996 89.77 C 295.10999999999996 90.19 294.23999999999995 90.39999999999999 293.21 90.39999999999999 C 292.18 90.39999999999999 291.31 90.19 290.62 89.77 C 289.93 89.35 289.41 88.75999999999999 289.07 88.00999999999999 C 288.72999999999996 87.25999999999999 288.56 86.13 288.56 84.61999999999999 L 288.56 79.49999999999999 Z" stroke-linecap="round" />
</g>
<g transform="matrix(1 0 0 1 303.53 84.68)" id="m5VlqDJlgEgrQhmdEI4c1"  >
<path style="stroke: none; stroke-width: 0; stroke-dasharray: none; stroke-linecap: butt; stroke-dashoffset: 0; stroke-linejoin: miter; stroke-miterlimit: 4; fill: rgb(255,255,255); fill-rule: nonzero; opacity: 1;"  transform=" translate(-303.53, -84.68)" d="M 300.84 79.51 L 302.23999999999995 79.51 L 302.23999999999995 81.06 C 302.65999999999997 80.45 303.09999999999997 79.99000000000001 303.55999999999995 79.69 C 304.0199999999999 79.39 304.50999999999993 79.24 305.00999999999993 79.24 C 305.38999999999993 79.24 305.7899999999999 79.36 306.2199999999999 79.6 L 305.50999999999993 80.75 C 305.2199999999999 80.63 304.97999999999996 80.56 304.7899999999999 80.56 C 304.3299999999999 80.56 303.8999999999999 80.75 303.4699999999999 81.12 C 303.0499999999999 81.49000000000001 302.7199999999999 82.08 302.4999999999999 82.86 C 302.32999999999987 83.47 302.2499999999999 84.69 302.2499999999999 86.53 L 302.2499999999999 90.12 L 300.8499999999999 90.12 L 300.8499999999999 79.5 Z" stroke-linecap="round" />
</g>
<g transform="matrix(1 0 0 1 312.83 84.84)" id="Z_PFJHxH6Gh6-_ed7jVUl"  >
<path style="stroke: none; stroke-width: 0; stroke-dasharray: none; stroke-linecap: butt; stroke-dashoffset: 0; stroke-linejoin: miter; stroke-miterlimit: 4; fill: rgb(255,255,255); fill-rule: nonzero; opacity: 1;"  transform=" translate(-312.83, -84.84)" d="M 316.82 86.61 L 317.96999999999997 87.22 C 317.59 87.96 317.15999999999997 88.56 316.65999999999997 89.02 C 316.15999999999997 89.47999999999999 315.60999999999996 89.82 314.98999999999995 90.06 C 314.36999999999995 90.30000000000001 313.66999999999996 90.42 312.88999999999993 90.42 C 311.1599999999999 90.42 309.79999999999995 89.85000000000001 308.81999999999994 88.72 C 307.8399999999999 87.58999999999999 307.3499999999999 86.3 307.3499999999999 84.87 C 307.3499999999999 83.52000000000001 307.75999999999993 82.32000000000001 308.5899999999999 81.27000000000001 C 309.63999999999993 79.93 311.0399999999999 79.26 312.7999999999999 79.26 C 314.5599999999999 79.26 316.0599999999999 79.95 317.1399999999999 81.32000000000001 C 317.90999999999985 82.29 318.2999999999999 83.50000000000001 318.3099999999999 84.95 L 308.7499999999999 84.95 C 308.77999999999986 86.18 309.1699999999999 87.2 309.9299999999999 87.99000000000001 C 310.6899999999999 88.78000000000002 311.6399999999999 89.17000000000002 312.7599999999999 89.17000000000002 C 313.2999999999999 89.17000000000002 313.82999999999987 89.08000000000001 314.33999999999986 88.89000000000001 C 314.84999999999985 88.70000000000002 315.28999999999985 88.45000000000002 315.6399999999999 88.14000000000001 C 315.9999999999999 87.83000000000001 316.3899999999999 87.33000000000001 316.7999999999999 86.63000000000001 Z M 316.82 83.75 C 316.64 83.02 316.37 82.44 316.02 82 C 315.66999999999996 81.56 315.21 81.21 314.64 80.95 C 314.07 80.68 313.46 80.55 312.83 80.55 C 311.78999999999996 80.55 310.89 80.88 310.14 81.56 C 309.59 82.05 309.18 82.78 308.9 83.76 L 316.82 83.76 Z" stroke-linecap="round" />
</g>
<g transform="matrix(1 0 0 1 331.24 82.955)" id="Ezpr6ajNyrUBHehtgMMj2"  >
<path style="stroke: none; stroke-width: 0; stroke-dasharray: none; stroke-linecap: butt; stroke-dashoffset: 0; stroke-linejoin: miter; stroke-miterlimit: 4; fill: rgb(255,255,255); fill-rule: nonzero; opacity: 1;"  transform=" translate(-331.24, -82.955)" d="M 327.64 75.77 L 334.84 75.77 L 334.84 77.17999999999999 L 329.08 77.17999999999999 L 329.08 81.67999999999999 L 334.84 81.67999999999999 L 334.84 83.08999999999999 L 329.08 83.08999999999999 L 329.08 90.13999999999999 L 327.64 90.13999999999999 L 327.64 75.76999999999998 Z" stroke-linecap="round" />
</g>
<g transform="matrix(1 0 0 1 339.78 84.68)" id="Li3ALTiA3iHL5kzp9aXv0"  >
<path style="stroke: none; stroke-width: 0; stroke-dasharray: none; stroke-linecap: butt; stroke-dashoffset: 0; stroke-linejoin: miter; stroke-miterlimit: 4; fill: rgb(255,255,255); fill-rule: nonzero; opacity: 1;"  transform=" translate(-339.78, -84.68)" d="M 337.09 79.51 L 338.48999999999995 79.51 L 338.48999999999995 81.06 C 338.90999999999997 80.45 339.34999999999997 79.99000000000001 339.80999999999995 79.69 C 340.2699999999999 79.38999999999999 340.74999999999994 79.24 341.25999999999993 79.24 C 341.63999999999993 79.24 342.0399999999999 79.36 342.4699999999999 79.6 L 341.75999999999993 80.75 C 341.4699999999999 80.63 341.22999999999996 80.56 341.0399999999999 80.56 C 340.5799999999999 80.56 340.13999999999993 80.75 339.7199999999999 81.12 C 339.2999999999999 81.49000000000001 338.9699999999999 82.08 338.7499999999999 82.86 C 338.57999999999987 83.47 338.4999999999999 84.69 338.4999999999999 86.53 L 338.4999999999999 90.12 L 337.0999999999999 90.12 L 337.0999999999999 79.5 Z" stroke-linecap="round" />
</g>
<g transform="matrix(1 0 0 1 349.175 84.81)" id="myvxvz6wMiWVKPbh4opyt"  >
<path style="stroke: none; stroke-width: 0; stroke-dasharray: none; stroke-linecap: butt; stroke-dashoffset: 0; stroke-linejoin: miter; stroke-miterlimit: 4; fill: rgb(255,255,255); fill-rule: nonzero; opacity: 1;"  transform=" translate(-349.175, -84.81)" d="M 354.71 79.51 L 354.71 90.13000000000001 L 353.35999999999996 90.13000000000001 L 353.35999999999996 88.30000000000001 C 352.78999999999996 89.00000000000001 352.13999999999993 89.52000000000001 351.42999999999995 89.87 C 350.71999999999997 90.22 349.93999999999994 90.4 349.09 90.4 C 347.59 90.4 346.29999999999995 89.86 345.23999999999995 88.76 C 344.17999999999995 87.66000000000001 343.63999999999993 86.34 343.63999999999993 84.78 C 343.63999999999993 83.22 344.17999999999995 81.94 345.24999999999994 80.85 C 346.31999999999994 79.75999999999999 347.61999999999995 79.22 349.12999999999994 79.22 C 349.99999999999994 79.22 350.78999999999996 79.41 351.49999999999994 79.78 C 352.2099999999999 80.15 352.8299999999999 80.71000000000001 353.35999999999996 81.45 L 353.35999999999996 79.5 L 354.71 79.5 Z M 349.25 80.55000000000001 C 348.49 80.55000000000001 347.79 80.74000000000001 347.14 81.11000000000001 C 346.5 81.48000000000002 345.97999999999996 82.01000000000002 345.59999999999997 82.69000000000001 C 345.21999999999997 83.37000000000002 345.03 84.08000000000001 345.03 84.84000000000002 C 345.03 85.60000000000002 345.21999999999997 86.30000000000001 345.60999999999996 86.99000000000002 C 345.98999999999995 87.67000000000003 346.50999999999993 88.20000000000002 347.15999999999997 88.59000000000002 C 347.80999999999995 88.97000000000001 348.49999999999994 89.16000000000001 349.23999999999995 89.16000000000001 C 349.97999999999996 89.16000000000001 350.69999999999993 88.97000000000001 351.36999999999995 88.59000000000002 C 352.03999999999996 88.21000000000002 352.55999999999995 87.70000000000002 352.91999999999996 87.06000000000002 C 353.28 86.42000000000002 353.46 85.69000000000001 353.46 84.89000000000001 C 353.46 83.66000000000001 353.04999999999995 82.63000000000001 352.25 81.81000000000002 C 351.44 80.98000000000002 350.44 80.57000000000002 349.26 80.57000000000002 Z" stroke-linecap="round" />
</g>
<g transform="matrix(1 0 0 1 362.925 84.68)" id="EBUFQm8gS0Fc0HMo6OC1n"  >
<path style="stroke: none; stroke-width: 0; stroke-dasharray: none; stroke-linecap: butt; stroke-dashoffset: 0; stroke-linejoin: miter; stroke-miterlimit: 4; fill: rgb(255,255,255); fill-rule: nonzero; opacity: 1;"  transform=" translate(-362.925, -84.68)" d="M 358.29 79.51 L 359.66 79.51 L 359.66 81.41000000000001 C 360.21000000000004 80.68 360.81 80.14000000000001 361.48 79.77000000000001 C 362.15000000000003 79.4 362.87 79.23 363.65000000000003 79.23 C 364.43000000000006 79.23 365.15000000000003 79.43 365.76000000000005 79.84 C 366.37000000000006 80.25 366.83000000000004 80.79 367.12000000000006 81.47 C 367.4100000000001 82.14999999999999 367.56000000000006 83.22 367.56000000000006 84.66 L 367.56000000000006 90.13 L 366.19000000000005 90.13 L 366.19000000000005 85.06 C 366.19000000000005 83.84 366.14000000000004 83.02 366.0400000000001 82.61 C 365.88000000000005 81.91 365.5800000000001 81.38 365.13000000000005 81.02 C 364.68 80.66 364.09000000000003 80.49 363.37000000000006 80.49 C 362.5400000000001 80.49 361.80000000000007 80.75999999999999 361.15000000000003 81.30999999999999 C 360.5 81.85999999999999 360.06000000000006 82.52999999999999 359.86 83.33999999999999 C 359.73 83.86999999999999 359.66 84.82999999999998 359.66 86.22999999999999 L 359.66 90.13 L 358.29 90.13 L 358.29 79.50999999999999 Z" stroke-linecap="round" />
</g>
<g transform="matrix(1 0 0 1 375.91 84.8)" id="Xpa4Iej_3NXxiYSWcUw6D"  >
<path style="stroke: none; stroke-width: 0; stroke-dasharray: none; stroke-linecap: butt; stroke-dashoffset: 0; stroke-linejoin: miter; stroke-miterlimit: 4; fill: rgb(255,255,255); fill-rule: nonzero; opacity: 1;"  transform=" translate(-375.91, -84.8)" d="M 381.3 81.72 L 380.22 82.39 C 379.28000000000003 81.15 378.01000000000005 80.52 376.39000000000004 80.52 C 375.1 80.52 374.02000000000004 80.94 373.17 81.77 C 372.32 82.6 371.89000000000004 83.61 371.89000000000004 84.8 C 371.89000000000004 85.57 372.09000000000003 86.3 372.48 86.98 C 372.87 87.66000000000001 373.41 88.19 374.1 88.57000000000001 C 374.79 88.95 375.56 89.14 376.41 89.14 C 377.97 89.14 379.24 88.52 380.23 87.27 L 381.31 87.97999999999999 C 380.8 88.74 380.12 89.33999999999999 379.26 89.75999999999999 C 378.4 90.17999999999999 377.43 90.38999999999999 376.34 90.38999999999999 C 374.65999999999997 90.38999999999999 373.27 89.85999999999999 372.15999999999997 88.78999999999999 C 371.04999999999995 87.72 370.49999999999994 86.41999999999999 370.49999999999994 84.88999999999999 C 370.49999999999994 83.85999999999999 370.75999999999993 82.90999999999998 371.2799999999999 82.01999999999998 C 371.7999999999999 81.12999999999998 372.50999999999993 80.44999999999999 373.4099999999999 79.94999999999999 C 374.3099999999999 79.44999999999999 375.3299999999999 79.21 376.44999999999993 79.21 C 377.1499999999999 79.21 377.8299999999999 79.32 378.48999999999995 79.52999999999999 C 379.15 79.73999999999998 379.69999999999993 80.02999999999999 380.15999999999997 80.36999999999999 C 380.62 80.71 380.99999999999994 81.14999999999999 381.32 81.68999999999998 Z" stroke-linecap="round" />
</g>
<g transform="matrix(1 0 0 1 386.215 84.735)" id="J5zPnH4nwgtUB8U7_bqwn"  >
<path style="stroke: none; stroke-width: 0; stroke-dasharray: none; stroke-linecap: butt; stroke-dashoffset: 0; stroke-linejoin: miter; stroke-miterlimit: 4; fill: rgb(255,255,255); fill-rule: nonzero; opacity: 1;"  transform=" translate(-386.215, -84.735)" d="M 383.53 84.14 L 388.9 84.14 L 388.9 85.33 L 383.53 85.33 L 383.53 84.14 Z" stroke-linecap="round" />
</g>
<g transform="matrix(1 0 0 1 399.23 82.955)" id="N2ohkre1PV6gOMSVvyIaq"  >
<path style="stroke: none; stroke-width: 0; stroke-dasharray: none; stroke-linecap: butt; stroke-dashoffset: 0; stroke-linejoin: miter; stroke-miterlimit: 4; fill: rgb(255,255,255); fill-rule: nonzero; opacity: 1;"  transform=" translate(-399.23, -82.955)" d="M 391.13 90.14 L 393.19 75.77 L 393.42 75.77 L 399.26 87.56 L 405.03999999999996 75.77000000000001 L 405.27 75.77000000000001 L 407.34 90.14000000000001 L 405.92999999999995 90.14000000000001 L 404.50999999999993 79.87000000000002 L 399.42999999999995 90.14000000000001 L 399.05999999999995 90.14000000000001 L 393.91999999999996 79.79000000000002 L 392.50999999999993 90.14000000000001 L 391.11999999999995 90.14000000000001 Z" stroke-linecap="round" />
</g>
<g transform="matrix(1 0 0 1 415.495 84.81)" id="l3YqIInKVJ2JamDtzgqHs"  >
<path style="stroke: none; stroke-width: 0; stroke-dasharray: none; stroke-linecap: butt; stroke-dashoffset: 0; stroke-linejoin: miter; stroke-miterlimit: 4; fill: rgb(255,255,255); fill-rule: nonzero; opacity: 1;"  transform=" translate(-415.495, -84.81)" d="M 421.03 79.51 L 421.03 90.13000000000001 L 419.67999999999995 90.13000000000001 L 419.67999999999995 88.30000000000001 C 419.10999999999996 89.00000000000001 418.4599999999999 89.52000000000001 417.74999999999994 89.87 C 417.03999999999996 90.22 416.25999999999993 90.4 415.40999999999997 90.4 C 413.90999999999997 90.4 412.61999999999995 89.86 411.55999999999995 88.76 C 410.49999999999994 87.66000000000001 409.9599999999999 86.34 409.9599999999999 84.78 C 409.9599999999999 83.22 410.49999999999994 81.94 411.56999999999994 80.85 C 412.63999999999993 79.75999999999999 413.93999999999994 79.22 415.44999999999993 79.22 C 416.31999999999994 79.22 417.10999999999996 79.41 417.81999999999994 79.78 C 418.5299999999999 80.15 419.1499999999999 80.71000000000001 419.67999999999995 81.45 L 419.67999999999995 79.5 L 421.03 79.5 Z M 415.57 80.55000000000001 C 414.81 80.55000000000001 414.11 80.74000000000001 413.46 81.11000000000001 C 412.82 81.48000000000002 412.29999999999995 82.01000000000002 411.91999999999996 82.69000000000001 C 411.53999999999996 83.37000000000002 411.34999999999997 84.08000000000001 411.34999999999997 84.84000000000002 C 411.34999999999997 85.60000000000002 411.53999999999996 86.30000000000001 411.92999999999995 86.99000000000002 C 412.30999999999995 87.67000000000003 412.8299999999999 88.20000000000002 413.47999999999996 88.59000000000002 C 414.12999999999994 88.97000000000001 414.81999999999994 89.16000000000001 415.55999999999995 89.16000000000001 C 416.29999999999995 89.16000000000001 417.0199999999999 88.97000000000001 417.68999999999994 88.59000000000002 C 418.35999999999996 88.21000000000002 418.87999999999994 87.70000000000002 419.23999999999995 87.06000000000002 C 419.59999999999997 86.42000000000002 419.78 85.69000000000001 419.78 84.89000000000001 C 419.78 83.66000000000001 419.36999999999995 82.63000000000001 418.57 81.81000000000002 C 417.76 80.98000000000002 416.76 80.57000000000002 415.58 80.57000000000002 Z" stroke-linecap="round" />
</g>
<g transform="matrix(1 0 0 1 429.53 86.535)" id="3aZaZMBsphX_spe4DcRUv"  >
<path style="stroke: none; stroke-width: 0; stroke-dasharray: none; stroke-linecap: butt; stroke-dashoffset: 0; stroke-linejoin: miter; stroke-miterlimit: 4; fill: rgb(255,255,255); fill-rule: nonzero; opacity: 1;"  transform=" translate(-429.53, -86.535)" d="M 434.92 81.72 L 433.84000000000003 82.39 C 432.90000000000003 81.15 431.63000000000005 80.52 430.01000000000005 80.52 C 428.72 80.52 427.64000000000004 80.94 426.79 81.77 C 425.94 82.6 425.51000000000005 83.61 425.51000000000005 84.8 C 425.51000000000005 85.57 425.71000000000004 86.3 426.1 86.98 C 426.49 87.66000000000001 427.03000000000003 88.19 427.72 88.57000000000001 C 428.41 88.95 429.18 89.14 430.03000000000003 89.14 C 431.59000000000003 89.14 432.86 88.52 433.85 87.27 L 434.93 87.97999999999999 C 434.42 88.74 433.74 89.33999999999999 432.88 89.75999999999999 C 432.02 90.17999999999999 431.05 90.38999999999999 429.96 90.38999999999999 C 428.28 90.38999999999999 426.89 89.85999999999999 425.78 88.78999999999999 C 424.66999999999996 87.72 424.11999999999995 86.41999999999999 424.11999999999995 84.88999999999999 C 424.11999999999995 83.85999999999999 424.37999999999994 82.90999999999998 424.8999999999999 82.01999999999998 C 425.4199999999999 81.12999999999998 426.12999999999994 80.44999999999999 427.0299999999999 79.94999999999999 C 427.9299999999999 79.44999999999999 428.94999999999993 79.21 430.06999999999994 79.21 C 430.7699999999999 79.21 431.44999999999993 79.32 432.10999999999996 79.52999999999999 C 432.77 79.73999999999998 433.31999999999994 80.02999999999999 433.78 80.36999999999999 C 434.24 80.71 434.61999999999995 81.14999999999999 434.94 81.68999999999998 Z M 429.34000000000003 90.14 L 430.20000000000005 90.14 L 430.03000000000003 91.3 C 430.18 91.28 430.3 91.27 430.40000000000003 91.27 C 430.72 91.27 430.99 91.36999999999999 431.20000000000005 91.57 C 431.4100000000001 91.77 431.52000000000004 92.02 431.52000000000004 92.32 C 431.52000000000004 92.75 431.32000000000005 93.11 430.93000000000006 93.41 C 430.5400000000001 93.71 429.99000000000007 93.86 429.2800000000001 93.86 C 428.7000000000001 93.86 428.1600000000001 93.76 427.6500000000001 93.57 L 427.86000000000007 92.89999999999999 C 428.2800000000001 93.02999999999999 428.6700000000001 93.1 429.0300000000001 93.1 C 429.5200000000001 93.1 429.86000000000007 93.03999999999999 430.06000000000006 92.91999999999999 C 430.26000000000005 92.79999999999998 430.3500000000001 92.64999999999999 430.3500000000001 92.46999999999998 C 430.3500000000001 92.35999999999999 430.30000000000007 92.25999999999999 430.19000000000005 92.17999999999998 C 430.08000000000004 92.09999999999997 429.93000000000006 92.04999999999998 429.75000000000006 92.04999999999998 C 429.59000000000003 92.04999999999998 429.37000000000006 92.07999999999998 429.07000000000005 92.13999999999999 L 429.33000000000004 90.15999999999998 Z" stroke-linecap="round" />
</g>
<g transform="matrix(1 0 0 1 443.065 84.83)" id="ivjNoIOzv_ihspvEa1gnX"  >
<path style="stroke: none; stroke-width: 0; stroke-dasharray: none; stroke-linecap: butt; stroke-dashoffset: 0; stroke-linejoin: miter; stroke-miterlimit: 4; fill: rgb(255,255,255); fill-rule: nonzero; opacity: 1;"  transform=" translate(-443.065, -84.83)" d="M 443.07 79.24 C 444.71 79.24 446.06 79.83 447.14 81.02 C 448.12 82.1 448.61 83.38 448.61 84.86 C 448.61 86.34 448.09000000000003 87.64 447.06 88.75 C 446.03000000000003 89.86 444.7 90.42 443.07 90.42 C 441.44 90.42 440.11 89.87 439.07 88.75 C 438.04 87.64 437.52 86.34 437.52 84.86 C 437.52 83.38 438.01 82.11 438.99 81.03 C 440.07 79.84 441.43 79.24 443.07 79.24 Z M 443.07 80.58 C 441.93 80.58 440.96 81 440.14 81.84 C 439.32 82.68 438.91999999999996 83.7 438.91999999999996 84.89 C 438.91999999999996 85.66 439.10999999999996 86.37 439.47999999999996 87.04 C 439.84999999999997 87.71000000000001 440.35999999999996 88.22000000000001 440.98999999999995 88.58000000000001 C 441.61999999999995 88.94000000000001 442.31999999999994 89.12000000000002 443.0799999999999 89.12000000000002 C 443.8399999999999 89.12000000000002 444.5299999999999 88.94000000000001 445.1699999999999 88.58000000000001 C 445.8099999999999 88.22000000000001 446.3099999999999 87.71000000000001 446.6799999999999 87.04 C 447.0499999999999 86.37 447.2399999999999 85.66000000000001 447.2399999999999 84.89 C 447.2399999999999 83.7 446.82999999999987 82.68 446.0099999999999 81.84 C 445.1899999999999 81 444.21999999999986 80.58 443.08999999999986 80.58 Z" stroke-linecap="round" />
</g>
<g transform="matrix(1 0 0 1 456.275 84.68)" id="M4fay5iZFYGKtFDmu1RER"  >
<path style="stroke: none; stroke-width: 0; stroke-dasharray: none; stroke-linecap: butt; stroke-dashoffset: 0; stroke-linejoin: miter; stroke-miterlimit: 4; fill: rgb(255,255,255); fill-rule: nonzero; opacity: 1;"  transform=" translate(-456.275, -84.68)" d="M 451.64 79.51 L 453.01 79.51 L 453.01 81.41000000000001 C 453.56 80.68 454.15999999999997 80.14000000000001 454.83 79.77000000000001 C 455.5 79.4 456.21999999999997 79.23 457 79.23 C 457.78000000000003 79.23 458.5 79.43 459.11 79.84 C 459.72 80.25 460.18 80.79 460.47 81.47 C 460.76000000000005 82.14999999999999 460.91 83.22 460.91 84.66 L 460.91 90.13 L 459.54 90.13 L 459.54 85.06 C 459.54 83.84 459.49 83.02 459.39000000000004 82.61 C 459.23 81.91 458.93000000000006 81.38 458.48 81.02 C 458.03 80.66 457.44 80.49 456.72 80.49 C 455.89000000000004 80.49 455.15000000000003 80.75999999999999 454.5 81.30999999999999 C 453.84999999999997 81.85999999999999 453.41 82.52999999999999 453.21 83.33999999999999 C 453.08 83.86999999999999 453.01 84.82999999999998 453.01 86.22999999999999 L 453.01 90.13 L 451.64 90.13 L 451.64 79.50999999999999 Z" stroke-linecap="round" />
</g>
<g transform="matrix(1 0 0 1 468.975 84.68)" id="vkICFJ0iQI_tB3B5XYsMV"  >
<path style="stroke: none; stroke-width: 0; stroke-dasharray: none; stroke-linecap: butt; stroke-dashoffset: 0; stroke-linejoin: miter; stroke-miterlimit: 4; fill: rgb(255,255,255); fill-rule: nonzero; opacity: 1;"  transform=" translate(-468.975, -84.68)" d="M 464.34 79.51 L 465.71 79.51 L 465.71 81.41000000000001 C 466.26 80.68 466.85999999999996 80.14000000000001 467.53 79.77000000000001 C 468.2 79.4 468.91999999999996 79.23 469.7 79.23 C 470.48 79.23 471.2 79.43 471.81 79.84 C 472.42 80.25 472.88 80.79 473.17 81.47 C 473.46000000000004 82.14999999999999 473.61 83.22 473.61 84.66 L 473.61 90.13 L 472.24 90.13 L 472.24 85.06 C 472.24 83.84 472.19 83.02 472.09000000000003 82.61 C 471.93 81.91 471.63000000000005 81.38 471.18 81.02 C 470.72999999999996 80.66 470.14 80.49 469.42 80.49 C 468.59000000000003 80.49 467.85 80.75999999999999 467.2 81.30999999999999 C 466.54999999999995 81.85999999999999 466.11 82.52999999999999 465.90999999999997 83.33999999999999 C 465.78 83.86999999999999 465.71 84.82999999999998 465.71 86.22999999999999 L 465.71 90.13 L 464.34 90.13 L 464.34 79.50999999999999 Z" stroke-linecap="round" />
</g>
<g transform="matrix(1 0 0 1 477.515 82.64)" id="_M372Nnbx4p7Dyj9ALmw3"  >
<path style="stroke: none; stroke-width: 0; stroke-dasharray: none; stroke-linecap: butt; stroke-dashoffset: 0; stroke-linejoin: miter; stroke-miterlimit: 4; fill: rgb(255,255,255); fill-rule: nonzero; opacity: 1;"  transform=" translate(-477.515, -82.64)" d="M 477.51 75.14 C 477.82 75.14 478.09 75.25 478.31 75.47 C 478.53000000000003 75.69 478.64 75.96 478.64 76.27 C 478.64 76.58 478.53 76.83999999999999 478.31 77.06 C 478.09 77.28 477.82 77.39 477.51 77.39 C 477.2 77.39 476.94 77.28 476.71999999999997 77.06 C 476.49999999999994 76.84 476.39 76.57000000000001 476.39 76.27 C 476.39 75.96999999999998 476.5 75.69 476.71999999999997 75.47 C 476.94 75.25 477.2 75.14 477.51 75.14 Z M 476.83 79.52 L 478.2 79.52 L 478.2 90.14 L 476.83 90.14 L 476.83 79.52 Z" stroke-linecap="round" />
</g>
<g transform="matrix(1 0 0 1 486.575 86.625)" id="ptkREjkMF1PWK25Y2FupP"  >
<path style="stroke: none; stroke-width: 0; stroke-dasharray: none; stroke-linecap: butt; stroke-dashoffset: 0; stroke-linejoin: miter; stroke-miterlimit: 4; fill: rgb(255,255,255); fill-rule: nonzero; opacity: 1;"  transform=" translate(-486.575, -86.625)" d="M 492.11 79.51 L 492.11 94.02000000000001 L 490.76 94.02000000000001 L 490.76 88.31000000000002 C 490.19 89.01000000000002 489.53999999999996 89.53000000000002 488.83 89.88000000000001 C 488.12 90.23 487.34 90.41000000000001 486.49 90.41000000000001 C 484.99 90.41000000000001 483.7 89.87 482.64 88.77000000000001 C 481.58 87.67000000000002 481.03999999999996 86.35000000000001 481.03999999999996 84.79 C 481.03999999999996 83.23 481.58 81.95 482.65 80.86 C 483.71999999999997 79.77 485.02 79.23 486.53 79.23 C 487.4 79.23 488.19 79.42 488.9 79.79 C 489.60999999999996 80.16000000000001 490.22999999999996 80.72000000000001 490.76 81.46000000000001 L 490.76 79.51 L 492.11 79.51 Z M 486.65000000000003 80.55000000000001 C 485.89000000000004 80.55000000000001 485.19000000000005 80.74000000000001 484.54 81.11000000000001 C 483.90000000000003 81.48000000000002 483.38 82.01000000000002 483 82.69000000000001 C 482.62 83.37000000000002 482.43 84.08000000000001 482.43 84.84000000000002 C 482.43 85.60000000000002 482.62 86.30000000000001 483.01 86.99000000000002 C 483.39 87.67000000000003 483.90999999999997 88.20000000000002 484.56 88.59000000000002 C 485.21 88.97000000000001 485.9 89.16000000000001 486.64 89.16000000000001 C 487.38 89.16000000000001 488.09999999999997 88.97000000000001 488.77 88.59000000000002 C 489.44 88.21000000000002 489.96 87.70000000000002 490.32 87.06000000000002 C 490.68 86.42000000000002 490.86 85.69000000000001 490.86 84.89000000000001 C 490.86 83.66000000000001 490.45 82.63000000000001 489.65000000000003 81.81000000000002 C 488.84000000000003 80.98000000000002 487.84000000000003 80.57000000000002 486.66 80.57000000000002 Z" stroke-linecap="round" />
</g>
<g transform="matrix(1 0 0 1 500.155 84.95)" id="Rm7MmLzIKro6j9vLq0W0G"  >
<path style="stroke: none; stroke-width: 0; stroke-dasharray: none; stroke-linecap: butt; stroke-dashoffset: 0; stroke-linejoin: miter; stroke-miterlimit: 4; fill: rgb(255,255,255); fill-rule: nonzero; opacity: 1;"  transform=" translate(-500.155, -84.95)" d="M 495.5 79.51 L 496.87 79.51 L 496.87 84.47 C 496.87 85.67999999999999 496.94 86.51 497.07 86.97 C 497.27 87.62 497.64 88.14 498.19 88.51 C 498.74 88.88000000000001 499.4 89.08 500.16 89.08 C 500.9200000000001 89.08 501.57000000000005 88.89999999999999 502.1 88.53 C 502.63 88.16000000000001 503 87.68 503.20000000000005 87.08 C 503.34000000000003 86.67 503.41 85.8 503.41 84.47 L 503.41 79.51 L 504.81 79.51 L 504.81 84.72 C 504.81 86.17999999999999 504.64 87.28999999999999 504.3 88.03 C 503.96000000000004 88.77000000000001 503.44 89.35 502.76 89.77 C 502.08 90.19 501.21 90.39999999999999 500.18 90.39999999999999 C 499.15000000000003 90.39999999999999 498.28000000000003 90.19 497.59000000000003 89.77 C 496.90000000000003 89.35 496.38000000000005 88.75999999999999 496.04 88.00999999999999 C 495.7 87.25999999999999 495.53000000000003 86.13 495.53000000000003 84.61999999999999 L 495.53000000000003 79.49999999999999 Z" stroke-linecap="round" />
</g>
<g transform="matrix(1 0 0 1 513.29 84.84)" id="J0sOswUQXS8GjKp3Ct1xN"  >
<path style="stroke: none; stroke-width: 0; stroke-dasharray: none; stroke-linecap: butt; stroke-dashoffset: 0; stroke-linejoin: miter; stroke-miterlimit: 4; fill: rgb(255,255,255); fill-rule: nonzero; opacity: 1;"  transform=" translate(-513.29, -84.84)" d="M 517.28 86.61 L 518.43 87.22 C 518.05 87.96 517.62 88.56 517.12 89.02 C 516.62 89.47999999999999 516.07 89.82 515.45 90.06 C 514.83 90.30000000000001 514.13 90.42 513.35 90.42 C 511.62 90.42 510.26000000000005 89.85000000000001 509.28000000000003 88.72 C 508.3 87.58999999999999 507.81 86.3 507.81 84.87 C 507.81 83.52000000000001 508.22 82.32000000000001 509.05 81.27000000000001 C 510.1 79.93 511.5 79.26 513.26 79.26 C 515.02 79.26 516.52 79.95 517.6 81.32000000000001 C 518.37 82.29 518.76 83.50000000000001 518.77 84.95 L 509.21 84.95 C 509.23999999999995 86.18 509.63 87.2 510.39 87.99000000000001 C 511.15 88.78000000000002 512.1 89.17000000000002 513.22 89.17000000000002 C 513.76 89.17000000000002 514.2900000000001 89.08000000000001 514.8000000000001 88.89000000000001 C 515.3100000000001 88.70000000000002 515.7500000000001 88.45000000000002 516.1 88.14000000000001 C 516.46 87.83000000000001 516.85 87.33000000000001 517.26 86.63000000000001 Z M 517.28 83.75 C 517.1 83.02 516.8299999999999 82.44 516.48 82 C 516.1300000000001 81.56 515.6700000000001 81.21 515.1 80.95 C 514.53 80.68 513.9200000000001 80.55 513.2900000000001 80.55 C 512.2500000000001 80.55 511.3500000000001 80.88 510.6000000000001 81.56 C 510.05000000000007 82.05 509.6400000000001 82.78 509.36000000000007 83.76 L 517.2800000000001 83.76 Z" stroke-linecap="round" />
</g>
</svg>