<?xml version="1.0" encoding="UTF-8"?>
<svg id="Calque_2" data-name="Calque 2" xmlns="http://www.w3.org/2000/svg" viewBox="0 0 402.78 285.52">
  <defs>
    <style>
      .cls-1 {
        fill: #fff;
      }
    </style>
  </defs>
  <g id="Calque_1" data-name="Calque 1">
    <g>
      <path class="cls-1" d="M349.49,220.33l-2.66-7.07-62.09-164.82-.19-.51c-5.08-13.95-8.63-20.92-10.65-20.92-1.01,0-3.55,5.58-7.61,16.74l-10.1,29.43-29.81,86.86-15.19,44.25-2.48,7.22-15.57,43.8c2.29,1.26,4.63,2.46,7.01,3.59l17.66-51.02,87.28,3.63,15.85,42.34c11.81-6.87,22.45-15.55,31.52-25.66l-2.96-7.85ZM218.73,204.28l37.45-108.47,2.87-8.32,6.38,17.18,4.01,10.79,16.52,44.5,13.85,37.29,2.61,7.03h-83.69Z"/>
      <path class="cls-1" d="M394.26,212.98s.03,0,.04,0c.99-.08,1.97-.19,2.95-.33,2.19-.31,5.38-3.35,5.53-5.33.01-.14,0-.28-.02-.44.02-.15.03-.3.02-.44-.14-1.98-3.34-5.02-5.53-5.33-.98-.14-1.96-.25-2.95-.33-.02,0-.03,0-.04,0-2.72-.38-5.56-.37-8.3-.33-.62,0-1.25.02-1.87.03-1.69.02-3.39.05-5.09.07-6.75.1-13.51.19-20.27.29-19.58.28-235.85,3.4-255.43,3.68-33.13.48-66.26.97-99.39,1.45-1.31.02-2.61.1-3.91.9,1.3.8,2.61.88,3.91.9,33.13.49,66.26.97,99.39,1.45,19.58.28,235.85,3.41,255.43,3.68,6.75.1,13.51.19,20.27.29,1.66.02,3.31.05,4.96.07.66,0,1.32.02,1.99.03,2.74.04,5.58.06,8.3-.33ZM360.88,206.88c0-1.44,7.63-2.6,17.04-2.6s17.04,1.16,17.04,2.6-7.63,2.6-17.04,2.6-17.04-1.16-17.04-2.6Z"/>
      <path class="cls-1" d="M379.13,206.88c-2.77,5.61-5.91,11.04-9.4,16.25-3.5,5.2-7.36,10.17-11.53,14.87-8.33,9.42-17.99,17.67-28.53,24.59-10.57,6.88-22.09,12.35-34.15,16.21-12.05,3.87-24.65,6.04-37.32,6.58-25.34,1.12-51.01-4.71-73.42-16.77-22.44-12.01-41.54-30.13-54.82-51.86-6.62-10.87-11.78-22.63-15.31-34.87-3.52-12.23-5.39-24.94-5.54-37.65-.21-12.72,1.42-25.44,4.5-37.75,1.66-6.13,3.51-12.22,5.98-18.07l.89-2.21c.29-.74.65-1.45.97-2.17l2-4.32c.7-1.42,1.46-2.82,2.19-4.23l1.1-2.11c.39-.69.8-1.37,1.19-2.06l2.4-4.1,2.6-3.98c.44-.66.86-1.33,1.31-1.98l1.39-1.93c.94-1.28,1.84-2.58,2.8-3.84,1.99-2.46,3.9-5,6.04-7.33l1.57-1.78c.52-.59,1.04-1.19,1.6-1.75l3.31-3.4c4.52-4.42,9.22-8.67,14.29-12.44l1.88-1.44c.62-.49,1.29-.91,1.93-1.37l3.89-2.7c1.32-.86,2.67-1.68,4-2.52l2.01-1.25c.68-.4,1.38-.77,2.06-1.16l4.13-2.3,4.24-2.1c.71-.34,1.41-.71,2.12-1.04l2.17-.94c1.45-.62,2.88-1.27,4.34-1.87l4.42-1.67c.74-.27,1.46-.58,2.22-.81l2.25-.73,2.24-.72c.75-.23,1.49-.51,2.25-.69l4.56-1.21C228.14,1.12,240.74-.15,253.23.01l-4.68.22-2.34.11c-.78.05-1.56.14-2.33.21l-4.66.45c-1.55.18-3.09.45-4.63.66-3.1.38-6.14,1.09-9.2,1.66-1.52.32-3.03.74-4.54,1.1-1.51.38-3.03.73-4.51,1.21l-4.46,1.35c-1.48.47-2.93,1.03-4.4,1.53l-2.2.78c-.74.25-1.44.58-2.16.86l-4.31,1.77c-1.42.63-2.81,1.31-4.22,1.96l-2.11.99c-.7.34-1.37.72-2.06,1.08l-4.11,2.18-4,2.37-2,1.19-1.94,1.28c-1.29.86-2.6,1.69-3.87,2.56l-3.75,2.73c-.62.46-1.27.89-1.86,1.39l-1.81,1.45c-4.88,3.81-9.39,8.07-13.7,12.48l-3.16,3.39c-.54.55-1.03,1.15-1.53,1.74l-1.5,1.76c-2.05,2.31-3.87,4.81-5.77,7.24-.92,1.24-1.78,2.52-2.67,3.78l-1.33,1.9c-.43.64-.83,1.3-1.24,1.95l-2.46,3.91-2.27,4.03c-.38.67-.77,1.34-1.13,2.02l-1.04,2.07c-.68,1.38-1.4,2.75-2.06,4.14l-1.87,4.23c-.3.71-.65,1.4-.91,2.12l-.83,2.16c-2.32,5.71-4.07,11.62-5.62,17.57-2.87,11.96-4.33,24.27-4,36.57.26,12.29,2.06,24.55,5.5,36.34,3.44,11.79,8.46,23.11,14.87,33.59,6.38,10.49,14.15,20.14,23.04,28.61,8.89,8.48,18.92,15.75,29.7,21.65,2.67,1.52,5.48,2.78,8.24,4.14,2.76,1.35,5.62,2.5,8.48,3.63,5.75,2.19,11.62,4.06,17.61,5.46,5.99,1.42,12.07,2.47,18.19,3.09,6.12.64,12.3.89,18.46.73,24.66-.63,49.17-7.85,70.26-20.91,10.56-6.49,20.28-14.39,28.83-23.43,4.28-4.51,8.27-9.31,11.94-14.36,3.68-5.03,7.04-10.32,10.03-15.81Z"/>
    </g>
  </g>
</svg>