<?xml version="1.0" encoding="UTF-8"?>
<svg id="Calque_2" data-name="Calque 2" xmlns="http://www.w3.org/2000/svg" viewBox="0 0 556.58 92.91">
  <defs>
    <style>
      .cls-1 {
        letter-spacing: 0em;
      }

      .cls-2, .cls-3 {
        fill: #fff;
      }

      .cls-4 {
        letter-spacing: 0em;
      }

      .cls-5 {
        letter-spacing: 0em;
      }

      .cls-6 {
        letter-spacing: 0em;
      }

      .cls-7 {
        letter-spacing: 0em;
      }

      .cls-8 {
        letter-spacing: .02em;
      }

      .cls-3 {
        font-family: 'Prata', Prata-Regular, Georgia, serif;
        font-size: 72px;
      }

      .cls-9 {
        letter-spacing: 0em;
      }
    </style>
  </defs>
  <g id="Calque_1" data-name="Calque 1">
    <g>
      <path class="cls-2" d="M105.96,66.8l-.81-2.14-18.83-49.97-.06-.16c-1.54-4.23-2.62-6.34-3.23-6.34-.31,0-1.08,1.69-2.31,5.07l-3.06,8.92-9.04,26.33-4.6,13.42-.75,2.19-4.72,13.28c.69.38,1.4.75,2.12,1.09l5.35-15.47,26.46,1.1,4.8,12.84c3.58-2.08,6.81-4.71,9.56-7.78l-.9-2.38ZM66.32,61.93l11.36-32.89.87-2.52,1.93,5.21,1.22,3.27,5.01,13.49,4.2,11.31.79,2.13h-25.37Z"/>
      <path class="cls-2" d="M119.53,64.57s0,0,.01,0c.3-.03.6-.06.89-.1.66-.09,1.63-1.02,1.68-1.62,0-.04,0-.09,0-.13,0-.05,0-.09,0-.13-.04-.6-1.01-1.52-1.68-1.62-.3-.04-.59-.08-.89-.1,0,0,0,0-.01,0-.82-.12-1.69-.11-2.52-.1-.19,0-.38,0-.57,0-.51,0-1.03.01-1.54.02-2.05.03-4.1.06-6.14.09-5.94.08-71.5,1.03-77.44,1.12-10.04.15-20.09.29-30.13.44-.4,0-.79.03-1.19.27.4.24.79.27,1.19.27,10.04.15,20.09.29,30.13.44,5.94.09,71.5,1.03,77.44,1.12,2.05.03,4.1.06,6.14.09.5,0,1,.01,1.5.02.2,0,.4,0,.6,0,.83.01,1.69.02,2.52-.1ZM109.41,62.72c0-.44,2.31-.79,5.17-.79s5.17.35,5.17.79-2.31.79-5.17.79-5.17-.35-5.17-.79Z"/>
      <path class="cls-2" d="M114.94,62.72c-.84,1.7-1.79,3.35-2.85,4.93-1.06,1.58-2.23,3.08-3.5,4.51-2.53,2.85-5.45,5.36-8.65,7.46-3.21,2.09-6.7,3.74-10.35,4.91-3.65,1.17-7.47,1.83-11.31,2-7.68.34-15.47-1.43-22.26-5.08-6.8-3.64-12.59-9.14-16.62-15.72-2.01-3.3-3.57-6.86-4.64-10.57-1.07-3.71-1.63-7.56-1.68-11.41-.06-3.86.43-7.71,1.37-11.45.5-1.86,1.07-3.7,1.81-5.48l.27-.67c.09-.22.2-.44.3-.66l.6-1.31c.21-.43.44-.85.66-1.28l.33-.64c.12-.21.24-.42.36-.62l.73-1.24.79-1.21c.13-.2.26-.4.4-.6l.42-.58c.28-.39.56-.78.85-1.16.6-.75,1.18-1.51,1.83-2.22l.48-.54c.16-.18.32-.36.49-.53l1-1.03c1.37-1.34,2.8-2.63,4.33-3.77l.57-.44c.19-.15.39-.28.59-.42l1.18-.82c.4-.26.81-.51,1.21-.77l.61-.38c.21-.12.42-.23.63-.35l1.25-.7,1.29-.64c.21-.1.43-.21.64-.31l.66-.29c.44-.19.87-.39,1.32-.57l1.34-.51c.22-.08.44-.18.67-.25l.68-.22.68-.22c.23-.07.45-.15.68-.21l1.38-.37C69.17.34,72.99-.05,76.77,0l-1.42.07-.71.03c-.24.01-.47.04-.71.06l-1.41.14c-.47.06-.94.14-1.4.2-.94.11-1.86.33-2.79.5-.46.1-.92.22-1.38.33-.46.11-.92.22-1.37.37l-1.35.41c-.45.14-.89.31-1.33.47l-.67.24c-.22.08-.44.18-.66.26l-1.31.54c-.43.19-.85.4-1.28.59l-.64.3c-.21.1-.42.22-.62.33l-1.25.66-1.21.72-.61.36-.59.39c-.39.26-.79.51-1.17.78l-1.14.83c-.19.14-.38.27-.56.42l-.55.44c-1.48,1.15-2.85,2.45-4.15,3.78l-.96,1.03c-.16.17-.31.35-.46.53l-.46.53c-.62.7-1.17,1.46-1.75,2.19-.28.38-.54.76-.81,1.15l-.4.57c-.13.19-.25.39-.38.59l-.75,1.19-.69,1.22c-.11.2-.23.41-.34.61l-.31.63c-.21.42-.42.83-.62,1.25l-.57,1.28c-.09.21-.2.42-.28.64l-.25.65c-.7,1.73-1.23,3.52-1.7,5.33-.87,3.63-1.31,7.36-1.21,11.09.08,3.73.62,7.44,1.67,11.02,1.04,3.58,2.56,7.01,4.51,10.18,1.93,3.18,4.29,6.11,6.99,8.67,2.69,2.57,5.74,4.78,9,6.57.81.46,1.66.84,2.5,1.25.84.41,1.7.76,2.57,1.1,1.74.66,3.52,1.23,5.34,1.66,1.81.43,3.66.75,5.52.94,1.86.19,3.73.27,5.6.22,7.47-.19,14.91-2.38,21.3-6.34,3.2-1.97,6.15-4.36,8.74-7.1,1.3-1.37,2.51-2.82,3.62-4.35,1.12-1.53,2.13-3.13,3.04-4.79Z"/>
    </g>
    <text class="cls-3" transform="translate(116.81 67.11)"><tspan class="cls-1" x="0" y="0">t</tspan><tspan x="23.4" y="0">elier </tspan><tspan class="cls-7" x="168.19" y="0">A</tspan><tspan class="cls-8" x="212.04" y="0">r</tspan><tspan class="cls-4" x="237.31" y="0">t </tspan><tspan class="cls-9" x="276.4" y="0">R</tspan><tspan class="cls-6" x="315.43" y="0">o</tspan><tspan class="cls-5" x="354.45" y="0">y</tspan><tspan class="cls-4" x="388.07" y="0">al</tspan></text>
    <g>
      <path class="cls-2" d="M123.8,72.83h1.55v14.28h5.99v1.53h-7.54v-15.8Z"/>
      <path class="cls-2" d="M145.57,76.95v11.69h-1.46v-2.01c-.62.77-1.32,1.34-2.09,1.73s-1.62.58-2.53.58c-1.63,0-3.02-.6-4.17-1.8-1.15-1.2-1.73-2.66-1.73-4.38s.58-3.12,1.75-4.32c1.16-1.2,2.56-1.79,4.2-1.79.94,0,1.8.2,2.56.61.76.41,1.44,1.02,2.01,1.84v-2.15h1.46ZM139.65,78.1c-.82,0-1.58.21-2.28.62-.7.41-1.25.99-1.66,1.73-.41.74-.62,1.53-.62,2.36s.21,1.61.62,2.36.97,1.34,1.67,1.75c.7.42,1.45.63,2.26.63s1.58-.21,2.3-.62c.73-.41,1.28-.98,1.67-1.68.39-.71.59-1.51.59-2.39,0-1.35-.44-2.48-1.32-3.39-.88-.91-1.96-1.36-3.24-1.36Z"/>
      <path class="cls-2" d="M156.2,72.83h1.55v6.63h7.92v-6.63h1.55v15.8h-1.55v-7.63h-7.92v7.63h-1.55v-15.8Z"/>
      <path class="cls-2" d="M182.79,76.95v11.69h-1.46v-2.01c-.62.77-1.32,1.34-2.09,1.73s-1.62.58-2.53.58c-1.63,0-3.02-.6-4.17-1.8-1.15-1.2-1.73-2.66-1.73-4.38s.58-3.12,1.75-4.32c1.16-1.2,2.56-1.79,4.2-1.79.94,0,1.8.2,2.56.61.76.41,1.44,1.02,2.01,1.84v-2.15h1.46ZM176.87,78.1c-.82,0-1.58.21-2.28.62-.7.41-1.25.99-1.66,1.73-.41.74-.62,1.53-.62,2.36s.21,1.61.62,2.36.97,1.34,1.67,1.75c.7.42,1.45.63,2.26.63s1.58-.21,2.3-.62c.73-.41,1.28-.98,1.67-1.68.39-.71.59-1.51.59-2.39,0-1.35-.44-2.48-1.32-3.39-.88-.91-1.96-1.36-3.24-1.36Z"/>
      <path class="cls-2" d="M186.47,76.95h1.48v5.46c0,1.33.07,2.25.21,2.75.21.72.62,1.28,1.21,1.7.6.42,1.31.62,2.13.62s1.53-.2,2.1-.61c.58-.4.97-.94,1.19-1.6.15-.45.22-1.41.22-2.87v-5.46h1.51v5.74c0,1.61-.19,2.83-.56,3.64s-.93,1.46-1.67,1.92c-.74.46-1.68.69-2.8.69s-2.06-.23-2.81-.69c-.75-.46-1.31-1.11-1.68-1.93-.37-.83-.56-2.07-.56-3.73v-5.63Z"/>
      <path class="cls-2" d="M201.66,72.61h1.48v4.34h2.35v1.3h-2.35v10.39h-1.48v-10.39h-2.02v-1.3h2.02v-4.34Z"/>
      <path class="cls-2" d="M217.94,84.76l1.25.67c-.41.82-.88,1.48-1.42,1.98-.54.5-1.14.88-1.81,1.14-.67.26-1.43.39-2.28.39-1.88,0-3.35-.62-4.4-1.87-1.06-1.25-1.59-2.66-1.59-4.24,0-1.48.45-2.8,1.34-3.96,1.14-1.48,2.66-2.21,4.56-2.21s3.53.76,4.7,2.27c.83,1.07,1.26,2.4,1.27,4h-10.35c.03,1.36.46,2.47,1.28,3.34.83.87,1.85,1.3,3.06,1.3.59,0,1.16-.1,1.71-.31.55-.21,1.03-.48,1.41-.82.39-.34.81-.9,1.26-1.66ZM217.94,81.61c-.2-.8-.49-1.44-.86-1.92-.38-.48-.88-.87-1.5-1.16-.62-.29-1.27-.44-1.96-.44-1.13,0-2.1.37-2.91,1.11-.59.54-1.04,1.34-1.35,2.42h8.58Z"/>
      <path class="cls-2" d="M244.14,75.77l-1.23.96c-.68-.9-1.49-1.57-2.44-2.04s-1.99-.69-3.13-.69c-1.24,0-2.39.3-3.45.91-1.06.61-1.88,1.42-2.46,2.44-.58,1.02-.87,2.17-.87,3.44,0,1.93.65,3.53,1.95,4.82s2.94,1.93,4.92,1.93c2.18,0,4-.87,5.47-2.6l1.23.95c-.78,1-1.74,1.78-2.9,2.33-1.16.55-2.46.82-3.89.82-2.72,0-4.87-.92-6.44-2.76-1.32-1.55-1.98-3.43-1.98-5.63,0-2.31.8-4.26,2.4-5.84,1.6-1.58,3.6-2.37,6-2.37,1.45,0,2.76.29,3.93.88,1.17.58,2.13,1.4,2.88,2.45Z"/>
      <path class="cls-2" d="M253.01,76.65c1.77,0,3.24.65,4.41,1.96,1.06,1.19,1.59,2.6,1.59,4.22s-.56,3.06-1.68,4.28c-1.12,1.22-2.56,1.83-4.32,1.83s-3.21-.61-4.33-1.83c-1.12-1.22-1.68-2.65-1.68-4.28s.53-3.02,1.59-4.21c1.17-1.31,2.64-1.97,4.42-1.97ZM253,78.12c-1.23,0-2.29.46-3.17,1.39s-1.33,2.04-1.33,3.35c0,.85.2,1.63.6,2.36s.95,1.29,1.63,1.69c.69.4,1.44.6,2.26.6s1.57-.2,2.26-.6c.69-.4,1.23-.96,1.63-1.69s.6-1.52.6-2.36c0-1.31-.44-2.43-1.33-3.35s-1.94-1.39-3.17-1.39Z"/>
      <path class="cls-2" d="M262.09,76.95h1.48v5.46c0,1.33.07,2.25.21,2.75.21.72.62,1.28,1.21,1.7.6.42,1.31.62,2.13.62s1.53-.2,2.1-.61c.58-.4.97-.94,1.19-1.6.15-.45.22-1.41.22-2.87v-5.46h1.51v5.74c0,1.61-.19,2.83-.56,3.64s-.93,1.46-1.67,1.92c-.74.46-1.68.69-2.8.69s-2.06-.23-2.81-.69c-.75-.46-1.31-1.11-1.68-1.93-.37-.83-.56-2.07-.56-3.73v-5.63Z"/>
      <path class="cls-2" d="M277.28,72.61h1.48v4.34h2.35v1.3h-2.35v10.39h-1.48v-10.39h-2.02v-1.3h2.02v-4.34Z"/>
      <path class="cls-2" d="M283.68,76.95h1.48v5.46c0,1.33.07,2.25.21,2.75.21.72.62,1.28,1.21,1.7.6.42,1.31.62,2.13.62s1.53-.2,2.1-.61c.58-.4.97-.94,1.19-1.6.15-.45.22-1.41.22-2.87v-5.46h1.51v5.74c0,1.61-.19,2.83-.56,3.64s-.93,1.46-1.67,1.92c-.74.46-1.68.69-2.8.69s-2.06-.23-2.81-.69c-.75-.46-1.31-1.11-1.68-1.93-.37-.83-.56-2.07-.56-3.73v-5.63Z"/>
      <path class="cls-2" d="M297.02,76.95h1.51v1.71c.45-.67.93-1.18,1.43-1.51.5-.33,1.02-.5,1.57-.5.41,0,.85.13,1.31.4l-.77,1.27c-.31-.14-.57-.2-.78-.2-.49,0-.97.21-1.43.62-.46.41-.81,1.05-1.05,1.92-.18.67-.27,2.01-.27,4.04v3.95h-1.51v-11.69Z"/>
      <path class="cls-2" d="M314.33,84.76l1.25.67c-.41.82-.88,1.48-1.42,1.98-.54.5-1.14.88-1.81,1.14-.67.26-1.43.39-2.28.39-1.88,0-3.35-.62-4.4-1.87-1.06-1.25-1.59-2.66-1.59-4.24,0-1.48.45-2.8,1.34-3.96,1.14-1.48,2.66-2.21,4.56-2.21s3.53.76,4.7,2.27c.83,1.07,1.26,2.4,1.27,4h-10.35c.03,1.36.46,2.47,1.28,3.34.83.87,1.85,1.3,3.06,1.3.59,0,1.16-.1,1.71-.31.55-.21,1.03-.48,1.41-.82.39-.34.81-.9,1.26-1.66ZM314.33,81.61c-.2-.8-.49-1.44-.86-1.92-.38-.48-.88-.87-1.5-1.16-.62-.29-1.27-.44-1.96-.44-1.13,0-2.1.37-2.91,1.11-.59.54-1.04,1.34-1.35,2.42h8.58Z"/>
      <path class="cls-2" d="M326.04,72.83h7.8v1.55h-6.24v4.95h6.24v1.55h-6.24v7.76h-1.55v-15.8Z"/>
      <path class="cls-2" d="M336.28,76.95h1.51v1.71c.45-.67.93-1.18,1.43-1.51.5-.33,1.02-.5,1.57-.5.41,0,.85.13,1.31.4l-.77,1.27c-.31-.14-.57-.2-.78-.2-.49,0-.97.21-1.43.62-.46.41-.81,1.05-1.05,1.92-.18.67-.28,2.01-.28,4.04v3.95h-1.51v-11.69Z"/>
      <path class="cls-2" d="M355.36,76.95v11.69h-1.46v-2.01c-.62.77-1.32,1.34-2.09,1.73s-1.62.58-2.53.58c-1.63,0-3.02-.6-4.17-1.8-1.15-1.2-1.73-2.66-1.73-4.38s.58-3.12,1.75-4.32c1.16-1.2,2.56-1.79,4.2-1.79.94,0,1.8.2,2.56.61.76.41,1.44,1.02,2.01,1.84v-2.15h1.46ZM349.45,78.1c-.82,0-1.58.21-2.28.62-.7.41-1.25.99-1.66,1.73-.41.74-.62,1.53-.62,2.36s.21,1.61.62,2.36c.42.75.97,1.34,1.67,1.75.7.42,1.45.63,2.26.63s1.58-.21,2.3-.62c.72-.41,1.28-.98,1.67-1.68.39-.71.59-1.51.59-2.39,0-1.35-.44-2.48-1.32-3.39-.88-.91-1.96-1.36-3.24-1.36Z"/>
      <path class="cls-2" d="M359.24,76.95h1.48v2.09c.59-.8,1.25-1.4,1.97-1.8.72-.4,1.5-.6,2.35-.6s1.62.22,2.29.67c.67.44,1.16,1.04,1.48,1.79s.48,1.92.48,3.51v6.02h-1.48v-5.58c0-1.35-.05-2.25-.16-2.7-.17-.77-.5-1.35-.99-1.75-.49-.39-1.12-.59-1.9-.59-.9,0-1.7.3-2.41.9-.71.6-1.18,1.35-1.4,2.23-.14.58-.21,1.64-.21,3.18v4.29h-1.48v-11.69Z"/>
      <path class="cls-2" d="M384.16,79.37l-1.17.74c-1.01-1.37-2.4-2.05-4.15-2.05-1.4,0-2.57.46-3.49,1.37-.93.92-1.39,2.03-1.39,3.34,0,.85.21,1.65.64,2.4.43.75,1.01,1.33,1.75,1.75.74.42,1.58.62,2.5.62,1.69,0,3.07-.68,4.14-2.05l1.17.78c-.55.84-1.29,1.49-2.22,1.96-.93.46-1.98.7-3.17.7-1.82,0-3.33-.59-4.53-1.76-1.2-1.17-1.8-2.6-1.8-4.29,0-1.13.28-2.18.84-3.15.56-.97,1.33-1.73,2.31-2.27.98-.54,2.08-.82,3.29-.82.76,0,1.5.12,2.21.35s1.31.54,1.8.92c.49.38.91.86,1.26,1.45Z"/>
      <path class="cls-2" d="M387.53,76.95h1.48v2.02c.52-.74,1.04-1.29,1.59-1.63.75-.46,1.54-.69,2.36-.69.56,0,1.09.11,1.59.33.5.22.91.52,1.23.89.32.37.59.9.83,1.58.49-.92,1.11-1.61,1.85-2.09.74-.48,1.53-.71,2.38-.71.79,0,1.5.2,2.11.61.61.41,1.06.98,1.36,1.71.29.73.44,1.83.44,3.29v6.38h-1.51v-6.38c0-1.25-.09-2.11-.26-2.58-.18-.47-.48-.85-.9-1.13-.42-.29-.93-.43-1.52-.43-.72,0-1.37.21-1.97.64s-1.03,1-1.3,1.72c-.27.72-.41,1.91-.41,3.59v4.58h-1.48v-5.98c0-1.41-.09-2.37-.26-2.87-.17-.5-.47-.91-.9-1.21-.43-.3-.94-.46-1.53-.46-.68,0-1.32.21-1.92.63s-1.04.98-1.32,1.69c-.29.71-.43,1.79-.43,3.25v4.95h-1.48v-11.69Z"/>
      <path class="cls-2" d="M419.87,76.95v11.69h-1.46v-2.01c-.62.77-1.32,1.34-2.09,1.73s-1.62.58-2.53.58c-1.63,0-3.02-.6-4.17-1.8-1.15-1.2-1.73-2.66-1.73-4.38s.58-3.12,1.75-4.32c1.16-1.2,2.56-1.79,4.2-1.79.94,0,1.8.2,2.56.61.76.41,1.44,1.02,2.01,1.84v-2.15h1.46ZM413.95,78.1c-.82,0-1.58.21-2.28.62-.7.41-1.25.99-1.66,1.73-.41.74-.62,1.53-.62,2.36s.21,1.61.62,2.36c.42.75.97,1.34,1.67,1.75.7.42,1.45.63,2.26.63s1.58-.21,2.3-.62c.72-.41,1.28-.98,1.67-1.68.39-.71.59-1.51.59-2.39,0-1.35-.44-2.48-1.32-3.39-.88-.91-1.96-1.36-3.24-1.36Z"/>
      <path class="cls-2" d="M434.91,79.37l-1.17.74c-1.01-1.37-2.4-2.05-4.15-2.05-1.4,0-2.57.46-3.49,1.37-.93.92-1.39,2.03-1.39,3.34,0,.85.21,1.65.64,2.4.43.75,1.01,1.33,1.75,1.75.74.42,1.58.62,2.5.62,1.69,0,3.07-.68,4.14-2.05l1.17.78c-.55.84-1.29,1.49-2.22,1.96-.93.46-1.98.7-3.17.7-1.82,0-3.33-.59-4.53-1.76-1.2-1.17-1.8-2.6-1.8-4.29,0-1.13.28-2.18.84-3.15.56-.97,1.33-1.73,2.31-2.27.98-.54,2.08-.82,3.29-.82.76,0,1.5.12,2.21.35s1.31.54,1.8.92c.49.38.91.86,1.26,1.45ZM428.87,88.63h.93l-.18,1.28c.16-.02.3-.03.4-.03.34,0,.63.11.87.33.23.22.35.49.35.82,0,.47-.21.87-.63,1.2-.42.33-1.02.49-1.79.49-.63,0-1.22-.11-1.77-.32l.23-.74c.45.14.87.21,1.27.21.53,0,.9-.07,1.11-.2.21-.13.32-.3.32-.5,0-.12-.06-.23-.17-.32-.12-.09-.28-.14-.48-.14-.17,0-.42.03-.74.1l.29-2.18Z"/>
      <path class="cls-2" d="M443.74,76.65c1.77,0,3.24.65,4.41,1.96,1.06,1.19,1.59,2.6,1.59,4.22s-.56,3.06-1.68,4.28c-1.12,1.22-2.56,1.83-4.32,1.83s-3.21-.61-4.33-1.83c-1.12-1.22-1.68-2.65-1.68-4.28s.53-3.02,1.59-4.21c1.17-1.31,2.64-1.97,4.42-1.97ZM443.74,78.12c-1.23,0-2.29.46-3.17,1.39s-1.33,2.04-1.33,3.35c0,.85.2,1.63.61,2.36s.95,1.29,1.63,1.69,1.44.6,2.26.6,1.57-.2,2.26-.6,1.23-.96,1.63-1.69c.4-.73.6-1.52.6-2.36,0-1.31-.44-2.43-1.33-3.35s-1.94-1.39-3.17-1.39Z"/>
      <path class="cls-2" d="M453.02,76.95h1.48v2.09c.59-.8,1.25-1.4,1.97-1.8.72-.4,1.5-.6,2.35-.6s1.62.22,2.29.67c.67.44,1.16,1.04,1.48,1.79s.48,1.92.48,3.51v6.02h-1.48v-5.58c0-1.35-.05-2.25-.16-2.7-.17-.77-.5-1.35-.99-1.75-.49-.39-1.12-.59-1.9-.59-.9,0-1.7.3-2.41.9-.71.6-1.18,1.35-1.4,2.23-.14.58-.21,1.64-.21,3.18v4.29h-1.48v-11.69Z"/>
      <path class="cls-2" d="M466.77,76.95h1.48v2.09c.59-.8,1.25-1.4,1.97-1.8.72-.4,1.5-.6,2.35-.6s1.62.22,2.29.67c.67.44,1.16,1.04,1.48,1.79s.48,1.92.48,3.51v6.02h-1.48v-5.58c0-1.35-.05-2.25-.16-2.7-.17-.77-.5-1.35-.99-1.75-.49-.39-1.12-.59-1.9-.59-.9,0-1.7.3-2.41.9-.71.6-1.18,1.35-1.4,2.23-.14.58-.21,1.64-.21,3.18v4.29h-1.48v-11.69Z"/>
      <path class="cls-2" d="M481.04,72.13c.34,0,.62.12.86.37.24.24.36.54.36.88s-.12.63-.36.87c-.24.24-.53.37-.86.37s-.61-.12-.85-.37c-.24-.24-.36-.53-.36-.87s.12-.64.36-.88c.24-.24.52-.37.85-.37ZM480.3,76.95h1.48v11.69h-1.48v-11.69Z"/>
      <path class="cls-2" d="M496.86,76.95v15.96h-1.46v-6.28c-.62.77-1.32,1.34-2.09,1.73-.77.39-1.62.58-2.53.58-1.63,0-3.02-.6-4.17-1.8-1.15-1.2-1.73-2.66-1.73-4.38s.58-3.12,1.75-4.32c1.16-1.2,2.56-1.79,4.2-1.79.94,0,1.8.2,2.56.61s1.44,1.02,2.01,1.84v-2.15h1.46ZM490.94,78.1c-.82,0-1.58.21-2.28.62-.7.41-1.25.99-1.66,1.73-.41.74-.62,1.53-.62,2.36s.21,1.61.62,2.36c.42.75.97,1.34,1.67,1.75.7.42,1.45.63,2.25.63s1.58-.21,2.3-.62c.72-.41,1.28-.98,1.67-1.68.39-.71.59-1.51.59-2.39,0-1.35-.44-2.48-1.32-3.39-.88-.91-1.96-1.36-3.24-1.36Z"/>
      <path class="cls-2" d="M500.53,76.95h1.48v5.46c0,1.33.07,2.25.21,2.75.21.72.62,1.28,1.21,1.7.6.42,1.31.62,2.13.62s1.53-.2,2.1-.61c.58-.4.97-.94,1.19-1.6.15-.45.22-1.41.22-2.87v-5.46h1.51v5.74c0,1.61-.18,2.83-.55,3.64-.37.82-.93,1.46-1.67,1.92s-1.68.69-2.8.69-2.06-.23-2.81-.69-1.31-1.11-1.68-1.93-.55-2.07-.55-3.73v-5.63Z"/>
      <path class="cls-2" d="M524.12,84.76l1.25.67c-.41.82-.88,1.48-1.42,1.98-.54.5-1.14.88-1.81,1.14-.67.26-1.43.39-2.28.39-1.88,0-3.34-.62-4.4-1.87-1.06-1.25-1.59-2.66-1.59-4.24,0-1.48.45-2.8,1.34-3.96,1.14-1.48,2.66-2.21,4.56-2.21s3.53.76,4.7,2.27c.83,1.07,1.26,2.4,1.27,4h-10.35c.03,1.36.46,2.47,1.28,3.34s1.85,1.3,3.06,1.3c.59,0,1.16-.1,1.71-.31.55-.21,1.03-.48,1.41-.82.39-.34.81-.9,1.26-1.66ZM524.12,81.61c-.2-.8-.49-1.44-.86-1.92-.38-.48-.88-.87-1.5-1.16-.62-.29-1.27-.44-1.96-.44-1.13,0-2.1.37-2.91,1.11-.59.54-1.04,1.34-1.34,2.42h8.58Z"/>
    </g>
  </g>
</svg>