<?xml version="1.0" encoding="UTF-8"?>
<svg id="Calque_2" data-name="Calque 2" xmlns="http://www.w3.org/2000/svg" viewBox="0 0 1271.49 177.03">
  <defs>
    <style>
      .cls-1 {
        fill: #fff;
      }
    </style>
  </defs>
  <g id="Calque_1" data-name="Calque 1">
    <g>
      <path class="cls-1" d="M212.82,134.17l-1.62-4.31-37.81-100.37-.12-.31c-3.09-8.49-5.25-12.74-6.49-12.74-.62,0-2.16,3.4-4.63,10.19l-6.15,17.92-18.15,52.89-9.25,26.94-1.51,4.4-9.48,26.67c1.4.77,2.82,1.5,4.27,2.18l10.75-31.07,53.15,2.21,9.65,25.78c7.19-4.18,13.67-9.47,19.19-15.62l-1.8-4.78ZM133.2,124.4l22.81-66.05,1.75-5.07,3.88,10.46,2.44,6.57,10.06,27.1,8.43,22.71,1.59,4.28h-50.96Z"/>
      <path class="cls-1" d="M240.09,129.7s.02,0,.02,0c.6-.05,1.2-.12,1.8-.2,1.33-.19,3.28-2.04,3.37-3.25,0-.08,0-.17-.01-.27.01-.09.02-.18.01-.27-.09-1.21-2.03-3.06-3.37-3.25-.59-.09-1.19-.15-1.8-.2,0,0-.02,0-.02,0-1.65-.23-3.39-.22-5.05-.2-.38,0-.76,0-1.14.02-1.03.01-2.07.03-3.1.04-4.11.06-8.23.12-12.34.18-11.92.17-143.62,2.07-155.54,2.24-20.18.29-40.35.59-60.53.89-.79.01-1.59.06-2.38.55.79.49,1.59.54,2.38.55,20.17.3,40.35.59,60.52.89,11.92.17,143.62,2.07,155.55,2.24,4.11.06,8.23.12,12.34.18,1.01.01,2.01.03,3.02.04.4,0,.81.01,1.21.02,1.67.02,3.4.03,5.05-.2ZM219.76,125.98c0-.87,4.64-1.58,10.37-1.58s10.37.71,10.37,1.58-4.64,1.58-10.37,1.58-10.37-.71-10.37-1.58Z"/>
      <path class="cls-1" d="M230.87,125.98c-1.68,3.42-3.6,6.72-5.72,9.9-2.13,3.17-4.48,6.19-7.02,9.06-5.07,5.73-10.95,10.76-17.38,14.97-6.44,4.19-13.45,7.52-20.79,9.87-7.34,2.36-15.01,3.68-22.72,4.01-15.43.68-31.06-2.87-44.71-10.21-13.66-7.31-25.29-18.35-33.38-31.58-4.03-6.62-7.17-13.78-9.32-21.23-2.14-7.45-3.28-15.19-3.38-22.93-.13-7.75.87-15.49,2.74-22.99,1.01-3.73,2.14-7.44,3.64-11l.54-1.34c.18-.45.4-.88.59-1.32l1.21-2.63c.43-.87.89-1.72,1.33-2.57l.67-1.28c.23-.42.49-.83.73-1.25l1.46-2.5,1.58-2.43c.27-.4.52-.81.8-1.21l.85-1.17c.57-.78,1.12-1.57,1.71-2.34,1.21-1.5,2.37-3.04,3.68-4.46l.96-1.09c.32-.36.63-.73.98-1.06l2.02-2.07c2.75-2.69,5.62-5.28,8.7-7.58l1.14-.88c.38-.3.78-.56,1.18-.84l2.37-1.65c.8-.53,1.63-1.02,2.44-1.54l1.22-.76c.41-.24.84-.47,1.26-.71l2.52-1.4,2.58-1.28c.43-.21.86-.43,1.29-.63l1.32-.57c.88-.38,1.75-.78,2.64-1.14l2.69-1.02c.45-.16.89-.35,1.35-.49l1.37-.44,1.37-.44c.46-.14.91-.31,1.37-.42l2.78-.74C138.93.68,146.6-.09,154.21,0l-2.85.13-1.42.07c-.47.03-.95.09-1.42.13l-2.84.28c-.94.11-1.88.27-2.82.4-1.89.23-3.74.66-5.6,1.01-.93.19-1.84.45-2.76.67-.92.23-1.84.44-2.74.74l-2.72.82c-.9.29-1.79.62-2.68.93l-1.34.47c-.45.15-.88.35-1.32.53l-2.62,1.08c-.86.38-1.71.8-2.57,1.19l-1.28.6c-.42.21-.84.44-1.25.66l-2.5,1.33-2.44,1.44-1.22.72-1.18.78c-.79.52-1.58,1.03-2.36,1.56l-2.29,1.66c-.38.28-.77.54-1.13.84l-1.1.89c-2.97,2.32-5.72,4.91-8.35,7.6l-1.92,2.06c-.33.34-.63.7-.93,1.06l-.91,1.07c-1.25,1.4-2.36,2.93-3.51,4.41-.56.76-1.08,1.54-1.62,2.3l-.81,1.15c-.26.39-.5.79-.76,1.19l-1.5,2.38-1.38,2.45c-.23.41-.47.81-.69,1.23l-.63,1.26c-.42.84-.85,1.67-1.25,2.52l-1.14,2.57c-.18.43-.39.85-.56,1.29l-.5,1.31c-1.41,3.47-2.48,7.08-3.42,10.7-1.74,7.28-2.64,14.78-2.44,22.27.16,7.48,1.25,14.95,3.35,22.13,2.09,7.18,5.15,14.08,9.05,20.45,3.88,6.39,8.62,12.26,14.03,17.42,5.41,5.17,11.52,9.59,18.08,13.19,1.63.92,3.34,1.69,5.02,2.52,1.68.82,3.42,1.52,5.16,2.21,3.5,1.33,7.08,2.47,10.72,3.32,3.65.87,7.35,1.5,11.08,1.88,3.73.39,7.49.54,11.24.45,15.01-.38,29.94-4.78,42.78-12.74,6.43-3.95,12.35-8.77,17.56-14.27,2.61-2.75,5.04-5.67,7.27-8.74,2.24-3.07,4.28-6.28,6.11-9.63Z"/>
    </g>
    <g>
      <path class="cls-1" d="M253.2,131.47c-3.81-3.18-5.71-8.24-5.71-15.18v-52.06l-10.27-1.45v-2.89h10.27v-12l14.46-3.62v15.62h18.8v2.89l-18.8,1.45v51.77c0,10.22,3.66,15.33,10.99,15.33,1.54,0,3.01-.24,4.41-.72,1.4-.48,2.51-.96,3.33-1.45.82-.48,1.32-.82,1.52-1.01l1.88,2.31c-4.34,3.86-9.54,5.79-15.62,5.79s-11.45-1.59-15.26-4.77Z"/>
      <path class="cls-1" d="M309.81,131.4c-5.78-3.23-10.37-7.78-13.74-13.67-3.38-5.88-5.06-12.68-5.06-20.39s1.66-14.48,4.99-20.32c3.33-5.83,7.81-10.36,13.45-13.59,5.64-3.23,11.93-4.84,18.87-4.84,6.07,0,11.52,1.35,16.34,4.05,4.82,2.7,8.58,6.44,11.28,11.21,2.7,4.77,4.1,10.25,4.19,16.41h-53.22v14.32c0,8.48,1.9,15.35,5.71,20.61,3.81,5.26,9.33,7.88,16.56,7.88,6.65,0,12.53-1.88,17.64-5.64,5.11-3.76,8.24-8.63,9.4-14.61h3.33c-1.35,7.14-4.77,12.82-10.27,17.06-5.5,4.24-12.2,6.36-20.1,6.36-7.14,0-13.59-1.61-19.38-4.84ZM344.23,86.64c0-8.39-1.3-14.63-3.9-18.73-2.6-4.1-6.65-6.15-12.15-6.15-6.46,0-11.47,2.27-15.04,6.8-3.57,4.53-5.59,10.56-6.07,18.08h37.17Z"/>
      <path class="cls-1" d="M368.82,134.8v-2.89l10.85-1.45V23.44l-10.85-1.45v-2.89h25.31v111.35l10.12,1.45v2.89h-35.43Z"/>
      <path class="cls-1" d="M411.33,134.8v-2.89l10.12-1.45v-66.09l-10.12-1.45v-2.89h24.58v70.43l10.12,1.45v2.89h-34.71ZM419.72,40.29c-1.93-1.88-2.89-4.17-2.89-6.87s.94-4.96,2.82-6.8c1.88-1.83,4.22-2.75,7.01-2.75,2.6,0,4.82.92,6.65,2.75,1.83,1.83,2.75,4.1,2.75,6.8s-.92,4.99-2.75,6.87c-1.83,1.88-4.05,2.82-6.65,2.82s-5.01-.94-6.94-2.82Z"/>
      <path class="cls-1" d="M474.09,131.4c-5.78-3.23-10.37-7.78-13.74-13.67-3.38-5.88-5.06-12.68-5.06-20.39s1.66-14.48,4.99-20.32c3.33-5.83,7.81-10.36,13.45-13.59,5.64-3.23,11.93-4.84,18.87-4.84,6.07,0,11.52,1.35,16.34,4.05,4.82,2.7,8.58,6.44,11.28,11.21,2.7,4.77,4.1,10.25,4.19,16.41h-53.22v14.32c0,8.48,1.9,15.35,5.71,20.61,3.81,5.26,9.33,7.88,16.56,7.88,6.65,0,12.53-1.88,17.64-5.64,5.11-3.76,8.24-8.63,9.4-14.61h3.33c-1.35,7.14-4.77,12.82-10.27,17.06-5.5,4.24-12.2,6.36-20.1,6.36-7.14,0-13.59-1.61-19.38-4.84ZM508.51,86.64c0-8.39-1.3-14.63-3.9-18.73-2.6-4.1-6.65-6.15-12.15-6.15-6.46,0-11.47,2.27-15.04,6.8-3.57,4.53-5.59,10.56-6.07,18.08h37.17Z"/>
      <path class="cls-1" d="M534.11,131.91l10.12-1.45v-66.23l-10.12-1.45v-2.89h24.58v11.14c6.07-8.29,12.92-12.44,20.54-12.44,3.66,0,6.89.94,9.69,2.82,2.8,1.88,4.19,4.56,4.19,8.03,0,2.51-.82,4.6-2.46,6.29-1.64,1.69-3.81,2.53-6.51,2.53-3.09,0-5.59-1.2-7.52-3.62,1.06-1.35,1.59-2.8,1.59-4.34,0-1.64-.56-2.96-1.66-3.98-1.11-1.01-2.58-1.52-4.41-1.52-2.02,0-4.1.94-6.22,2.82-2.12,1.88-4.53,4.8-7.23,8.75v54.09l11.57,1.45v2.89h-36.15v-2.89Z"/>
      <path class="cls-1" d="M624.64,134.8v-3.04l14.17-5.78,41.79-109.76h2.31l39.48,113.38,13.3,2.17v3.04h-42.52v-3.04l11.86-1.88-12.29-34.27h-38.47l-11.71,30.37,13.01,5.78v3.04h-30.95ZM655.44,92.57h36.3l-17.35-50.91-18.94,50.91Z"/>
      <path class="cls-1" d="M736.57,131.91l10.12-1.45v-66.23l-10.12-1.45v-2.89h24.58v11.14c6.07-8.29,12.92-12.44,20.54-12.44,3.66,0,6.89.94,9.69,2.82,2.8,1.88,4.19,4.56,4.19,8.03,0,2.51-.82,4.6-2.46,6.29-1.64,1.69-3.81,2.53-6.51,2.53-3.09,0-5.59-1.2-7.52-3.62,1.06-1.35,1.59-2.8,1.59-4.34,0-1.64-.56-2.96-1.66-3.98-1.11-1.01-2.58-1.52-4.41-1.52-2.02,0-4.1.94-6.22,2.82-2.12,1.88-4.53,4.8-7.23,8.75v54.09l11.57,1.45v2.89h-36.15v-2.89Z"/>
      <path class="cls-1" d="M815.16,131.47c-3.81-3.18-5.71-8.24-5.71-15.18v-52.06l-10.27-1.45v-2.89h10.27v-12l14.46-3.62v15.62h18.8v2.89l-18.8,1.45v51.77c0,10.22,3.66,15.33,10.99,15.33,1.54,0,3.01-.24,4.41-.72,1.4-.48,2.5-.96,3.32-1.45.82-.48,1.32-.82,1.52-1.01l1.88,2.31c-4.34,3.86-9.54,5.79-15.62,5.79s-11.45-1.59-15.26-4.77Z"/>
      <path class="cls-1" d="M958.98,132.34c-2.7-2.6-4.53-7.04-5.5-13.3l-2.75-19.38c-.96-6.56-3.21-11.69-6.72-15.4-3.52-3.71-8.99-5.57-16.41-5.57h-11.28v50.91l13.3,2.17v3.04h-42.52v-3.04l13.3-2.17V24.31l-13.3-2.03v-3.18h40.49c15.71,0,27.09,2.46,34.13,7.38,7.04,4.92,10.56,12.39,10.56,22.42,0,16.58-10.03,26.18-30.08,28.78v.87c7.42,1.06,13.38,3.71,17.86,7.95,4.48,4.24,7.3,9.88,8.46,16.92l1.88,12.44c.77,5.4,1.66,9.06,2.68,10.99,1.01,1.93,2.58,2.89,4.7,2.89,1.45,0,2.99-.46,4.63-1.37,1.64-.92,3.18-2.1,4.63-3.54l2.46,2.6c-2.8,3.18-5.69,5.45-8.68,6.8-2.99,1.35-6.22,2.03-9.69,2.03-5.4,0-9.45-1.3-12.15-3.91ZM932.52,75.22c7.04,0,12.51-2.14,16.41-6.44,3.9-4.29,5.86-10.63,5.86-19.02v-3.04c0-16-9.06-24.01-27.19-24.01h-11.28v52.49h16.2Z"/>
      <path class="cls-1" d="M1011.18,131.4c-5.69-3.23-10.19-7.81-13.52-13.74-3.33-5.93-4.99-12.7-4.99-20.32s1.66-14.36,4.99-20.25c3.33-5.88,7.83-10.44,13.52-13.67,5.69-3.23,12-4.84,18.95-4.84s13.25,1.62,18.94,4.84c5.69,3.23,10.2,7.79,13.52,13.67,3.33,5.88,4.99,12.63,4.99,20.25s-1.66,14.39-4.99,20.32c-3.33,5.93-7.83,10.51-13.52,13.74-5.69,3.23-12,4.84-18.94,4.84s-13.26-1.61-18.95-4.84ZM1046.26,125.25c3.62-5.21,5.42-12.1,5.42-20.68v-14.46c0-8.58-1.81-15.45-5.42-20.61-3.62-5.16-8.99-7.74-16.13-7.74s-12.51,2.58-16.13,7.74c-3.62,5.16-5.42,12.03-5.42,20.61v14.46c0,8.58,1.81,15.47,5.42,20.68,3.62,5.21,8.99,7.81,16.13,7.81s12.51-2.6,16.13-7.81Z"/>
      <path class="cls-1" d="M1078.72,173.27c-3.09-2.51-4.63-5.88-4.63-10.12,0-2.89.84-5.23,2.53-7.01,1.68-1.78,3.78-2.68,6.29-2.68,1.83,0,3.47.38,4.92,1.16,1.45.77,2.6,1.93,3.47,3.47-1.45,2.03-2.17,4.14-2.17,6.36,0,1.93.63,3.52,1.88,4.77,1.25,1.25,2.84,1.88,4.77,1.88,2.31,0,4.31-.77,6-2.31,1.69-1.54,3.21-4.24,4.56-8.1l8.68-24.87-33.55-71.44-9.69-1.45v-2.89h36.01v2.89l-10.12,1.74,24.15,51.63,17.21-49.75-12.44-3.62v-2.89h26.03v2.89l-9.83,3.62-32.39,94.14c-2.02,5.69-4.46,9.83-7.3,12.44-2.84,2.6-6.92,3.9-12.22,3.9-5.01,0-9.06-1.25-12.15-3.76Z"/>
      <path class="cls-1" d="M1163.75,131.4c-3.95-3.23-5.93-8.03-5.93-14.39,0-9.06,3.81-15.5,11.43-19.31,7.61-3.81,16.44-5.71,26.46-5.71h9.69v-11.14c0-5.01-.56-8.89-1.66-11.64-1.11-2.75-2.82-4.68-5.13-5.79-2.31-1.11-5.45-1.66-9.4-1.66-4.53,0-7.9.89-10.12,2.68-2.22,1.78-3.33,4.17-3.33,7.16,0,2.8,1.35,4.63,4.05,5.5,0,2.41-.92,4.53-2.75,6.36-1.83,1.83-4,2.75-6.51,2.75-2.7,0-4.87-.75-6.51-2.24-1.64-1.49-2.46-3.78-2.46-6.87,0-5.59,2.8-10.07,8.39-13.45,5.59-3.37,12.58-5.06,20.97-5.06,19.28,0,28.92,8.39,28.92,25.16v41.36c0,2.12.46,3.74,1.37,4.84.92,1.11,2.24,1.66,3.98,1.66,1.64,0,2.94-.55,3.9-1.66.96-1.11,1.45-2.63,1.45-4.56h3.04c0,3.38-1.08,6.03-3.25,7.95-2.17,1.93-5.18,2.89-9.04,2.89-4.43,0-8.17-1.28-11.21-3.83-3.04-2.55-4.61-6.53-4.7-11.93-2.31,4.92-5.86,8.77-10.63,11.57s-10.05,4.19-15.83,4.19c-6.17,0-11.23-1.61-15.19-4.84ZM1194.92,127.57c2.75-1.54,5.08-3.78,7.01-6.72,1.93-2.94,3.08-6.48,3.47-10.63v-15.04h-9.69c-7.91,0-13.81,1.76-17.71,5.28-3.91,3.52-5.86,8.46-5.86,14.82,0,5.3,1.25,9.06,3.76,11.28,2.51,2.22,6.17,3.33,10.99,3.33,2.6,0,5.28-.77,8.03-2.31Z"/>
      <path class="cls-1" d="M1236.06,134.8v-2.89l10.85-1.45V23.44l-10.85-1.45v-2.89h25.31v111.35l10.12,1.45v2.89h-35.43Z"/>
    </g>
  </g>
</svg>