<?xml version="1.0" encoding="UTF-8"?>
<svg id="Calque_2" data-name="Calque 2" xmlns="http://www.w3.org/2000/svg" viewBox="0 0 633.04 88.14">
  <defs>
    <style>
      .cls-1 {
        fill: #fff;
      }
    </style>
  </defs>
  <g id="Calque_1" data-name="Calque 1">
    <g>
      <path class="cls-1" d="M105.96,66.8l-.81-2.14-18.83-49.97-.06-.16c-1.54-4.23-2.62-6.34-3.23-6.34-.31,0-1.08,1.69-2.31,5.07l-3.06,8.92-9.04,26.33-4.6,13.42-.75,2.19-4.72,13.28c.69.38,1.4.75,2.12,1.09l5.35-15.47,26.46,1.1,4.8,12.84c3.58-2.08,6.81-4.71,9.56-7.78l-.9-2.38ZM66.32,61.93l11.36-32.89.87-2.52,1.93,5.21,1.22,3.27,5.01,13.49,4.2,11.31.79,2.13h-25.37Z"/>
      <path class="cls-1" d="M119.53,64.57s0,0,.01,0c.3-.03.6-.06.89-.1.66-.09,1.63-1.02,1.68-1.62,0-.04,0-.09,0-.13,0-.05,0-.09,0-.13-.04-.6-1.01-1.52-1.68-1.62-.3-.04-.59-.08-.89-.1,0,0,0,0-.01,0-.82-.12-1.69-.11-2.52-.1-.19,0-.38,0-.57,0-.51,0-1.03.01-1.54.02-2.05.03-4.1.06-6.14.09-5.94.08-71.5,1.03-77.44,1.12-10.04.15-20.09.29-30.13.44-.4,0-.79.03-1.19.27.4.24.79.27,1.19.27,10.04.15,20.09.29,30.13.44,5.94.09,71.5,1.03,77.44,1.12,2.05.03,4.1.06,6.14.09.5,0,1,.01,1.5.02.2,0,.4,0,.6,0,.83.01,1.69.02,2.52-.1ZM109.41,62.72c0-.44,2.31-.79,5.17-.79s5.17.35,5.17.79-2.31.79-5.17.79-5.17-.35-5.17-.79Z"/>
      <path class="cls-1" d="M114.94,62.72c-.84,1.7-1.79,3.35-2.85,4.93-1.06,1.58-2.23,3.08-3.5,4.51-2.53,2.85-5.45,5.36-8.65,7.46-3.21,2.09-6.7,3.74-10.35,4.91-3.65,1.17-7.47,1.83-11.31,2-7.68.34-15.47-1.43-22.26-5.08-6.8-3.64-12.59-9.14-16.62-15.72-2.01-3.3-3.57-6.86-4.64-10.57-1.07-3.71-1.63-7.56-1.68-11.41-.06-3.86.43-7.71,1.37-11.45.5-1.86,1.07-3.7,1.81-5.48l.27-.67c.09-.22.2-.44.3-.66l.6-1.31c.21-.43.44-.85.66-1.28l.33-.64c.12-.21.24-.42.36-.62l.73-1.24.79-1.21c.13-.2.26-.4.4-.6l.42-.58c.28-.39.56-.78.85-1.16.6-.75,1.18-1.51,1.83-2.22l.48-.54c.16-.18.32-.36.49-.53l1-1.03c1.37-1.34,2.8-2.63,4.33-3.77l.57-.44c.19-.15.39-.28.59-.42l1.18-.82c.4-.26.81-.51,1.21-.77l.61-.38c.21-.12.42-.23.63-.35l1.25-.7,1.29-.64c.21-.1.43-.21.64-.31l.66-.29c.44-.19.87-.39,1.32-.57l1.34-.51c.22-.08.44-.18.67-.25l.68-.22.68-.22c.23-.07.45-.15.68-.21l1.38-.37C69.17.34,72.99-.05,76.77,0l-1.42.07-.71.03c-.24.01-.47.04-.71.06l-1.41.14c-.47.06-.94.14-1.4.2-.94.11-1.86.33-2.79.5-.46.1-.92.22-1.38.33-.46.11-.92.22-1.37.37l-1.35.41c-.45.14-.89.31-1.33.47l-.67.24c-.22.08-.44.18-.66.26l-1.31.54c-.43.19-.85.4-1.28.59l-.64.3c-.21.1-.42.22-.62.33l-1.25.66-1.21.72-.61.36-.59.39c-.39.26-.79.51-1.17.78l-1.14.83c-.19.14-.38.27-.56.42l-.55.44c-1.48,1.15-2.85,2.45-4.15,3.78l-.96,1.03c-.16.17-.31.35-.46.53l-.46.53c-.62.7-1.17,1.46-1.75,2.19-.28.38-.54.76-.81,1.15l-.4.57c-.13.19-.25.39-.38.59l-.75,1.19-.69,1.22c-.11.2-.23.41-.34.61l-.31.63c-.21.42-.42.83-.62,1.25l-.57,1.28c-.09.21-.2.42-.28.64l-.25.65c-.7,1.73-1.23,3.52-1.7,5.33-.87,3.63-1.31,7.36-1.21,11.09.08,3.73.62,7.44,1.67,11.02,1.04,3.58,2.56,7.01,4.51,10.18,1.93,3.18,4.29,6.11,6.99,8.67,2.69,2.57,5.74,4.78,9,6.57.81.46,1.66.84,2.5,1.25.84.41,1.7.76,2.57,1.1,1.74.66,3.52,1.23,5.34,1.66,1.81.43,3.66.75,5.52.94,1.86.19,3.73.27,5.6.22,7.47-.19,14.91-2.38,21.3-6.34,3.2-1.97,6.15-4.36,8.74-7.1,1.3-1.37,2.51-2.82,3.62-4.35,1.12-1.53,2.13-3.13,3.04-4.79Z"/>
    </g>
    <g>
      <path class="cls-1" d="M126.06,65.46c-1.9-1.58-2.84-4.1-2.84-7.56v-25.92l-5.11-.72v-1.44h5.11v-5.98l7.2-1.8v7.78h9.36v1.44l-9.36.72v25.78c0,5.09,1.82,7.63,5.47,7.63.77,0,1.5-.12,2.2-.36.7-.24,1.25-.48,1.66-.72.41-.24.66-.41.76-.5l.94,1.15c-2.16,1.92-4.75,2.88-7.78,2.88s-5.7-.79-7.6-2.38Z"/>
      <path class="cls-1" d="M154.25,65.42c-2.88-1.61-5.16-3.88-6.84-6.8-1.68-2.93-2.52-6.31-2.52-10.15s.83-7.21,2.48-10.12c1.66-2.9,3.89-5.16,6.7-6.77,2.81-1.61,5.94-2.41,9.4-2.41,3.02,0,5.74.67,8.14,2.02,2.4,1.34,4.27,3.2,5.62,5.58,1.34,2.38,2.04,5.1,2.09,8.17h-26.5v7.13c0,4.22.95,7.64,2.84,10.26,1.9,2.62,4.64,3.92,8.24,3.92,3.31,0,6.24-.94,8.78-2.81,2.54-1.87,4.1-4.3,4.68-7.27h1.66c-.67,3.55-2.38,6.38-5.11,8.5-2.74,2.11-6.07,3.17-10.01,3.17-3.55,0-6.77-.8-9.65-2.41ZM171.38,43.14c0-4.18-.65-7.28-1.94-9.32-1.3-2.04-3.31-3.06-6.05-3.06-3.22,0-5.71,1.13-7.49,3.38-1.78,2.26-2.78,5.26-3.02,9h18.5Z"/>
      <path class="cls-1" d="M183.62,67.11v-1.44l5.4-.72V11.67l-5.4-.72v-1.44h12.6v55.44l5.04.72v1.44h-17.64Z"/>
      <path class="cls-1" d="M204.79,67.11v-1.44l5.04-.72v-32.9l-5.04-.72v-1.44h12.24v35.06l5.04.72v1.44h-17.28ZM208.97,20.06c-.96-.94-1.44-2.08-1.44-3.42s.47-2.47,1.4-3.38c.94-.91,2.1-1.37,3.49-1.37,1.3,0,2.4.46,3.31,1.37.91.91,1.37,2.04,1.37,3.38s-.46,2.48-1.37,3.42c-.91.94-2.02,1.4-3.31,1.4s-2.5-.47-3.46-1.4Z"/>
      <path class="cls-1" d="M236.04,65.42c-2.88-1.61-5.16-3.88-6.84-6.8-1.68-2.93-2.52-6.31-2.52-10.15s.83-7.21,2.48-10.12c1.66-2.9,3.89-5.16,6.7-6.77,2.81-1.61,5.94-2.41,9.4-2.41,3.02,0,5.74.67,8.14,2.02,2.4,1.34,4.27,3.2,5.62,5.58,1.34,2.38,2.04,5.1,2.09,8.17h-26.5v7.13c0,4.22.95,7.64,2.84,10.26,1.9,2.62,4.64,3.92,8.24,3.92,3.31,0,6.24-.94,8.78-2.81,2.54-1.87,4.1-4.3,4.68-7.27h1.66c-.67,3.55-2.38,6.38-5.11,8.5-2.74,2.11-6.07,3.17-10.01,3.17-3.55,0-6.77-.8-9.65-2.41ZM253.17,43.14c0-4.18-.65-7.28-1.94-9.32-1.3-2.04-3.31-3.06-6.05-3.06-3.22,0-5.71,1.13-7.49,3.38-1.78,2.26-2.78,5.26-3.02,9h18.5Z"/>
      <path class="cls-1" d="M265.92,65.67l5.04-.72V31.98l-5.04-.72v-1.44h12.24v5.54c3.02-4.13,6.43-6.19,10.22-6.19,1.82,0,3.43.47,4.82,1.4,1.39.94,2.09,2.27,2.09,4,0,1.25-.41,2.29-1.22,3.13-.82.84-1.9,1.26-3.24,1.26-1.54,0-2.79-.6-3.74-1.8.53-.67.79-1.39.79-2.16,0-.82-.28-1.48-.83-1.98-.55-.5-1.29-.76-2.2-.76-1.01,0-2.04.47-3.1,1.4-1.06.94-2.26,2.39-3.6,4.36v26.93l5.76.72v1.44h-18v-1.44Z"/>
      <path class="cls-1" d="M310.99,67.11v-1.51l7.06-2.88,20.81-54.65h1.15l19.66,56.45,6.62,1.08v1.51h-21.17v-1.51l5.9-.94-6.12-17.06h-19.15l-5.83,15.12,6.48,2.88v1.51h-15.41ZM326.32,46.09h18.07l-8.64-25.34-9.43,25.34Z"/>
      <path class="cls-1" d="M366.72,65.67l5.04-.72V31.98l-5.04-.72v-1.44h12.24v5.54c3.02-4.13,6.43-6.19,10.22-6.19,1.82,0,3.43.47,4.82,1.4,1.39.94,2.09,2.27,2.09,4,0,1.25-.41,2.29-1.22,3.13-.82.84-1.9,1.26-3.24,1.26-1.54,0-2.79-.6-3.74-1.8.53-.67.79-1.39.79-2.16,0-.82-.28-1.48-.83-1.98-.55-.5-1.29-.76-2.2-.76-1.01,0-2.04.47-3.1,1.4-1.06.94-2.26,2.39-3.6,4.36v26.93l5.76.72v1.44h-18v-1.44Z"/>
      <path class="cls-1" d="M405.85,65.46c-1.9-1.58-2.84-4.1-2.84-7.56v-25.92l-5.11-.72v-1.44h5.11v-5.98l7.2-1.8v7.78h9.36v1.44l-9.36.72v25.78c0,5.09,1.82,7.63,5.47,7.63.77,0,1.5-.12,2.2-.36.7-.24,1.25-.48,1.66-.72.41-.24.66-.41.76-.5l.94,1.15c-2.16,1.92-4.75,2.88-7.78,2.88s-5.7-.79-7.6-2.38Z"/>
      <path class="cls-1" d="M477.45,65.89c-1.34-1.3-2.26-3.5-2.74-6.62l-1.37-9.65c-.48-3.26-1.6-5.82-3.35-7.67-1.75-1.85-4.48-2.77-8.17-2.77h-5.62v25.34l6.62,1.08v1.51h-21.17v-1.51l6.62-1.08V12.1l-6.62-1.01v-1.58h20.16c7.82,0,13.49,1.22,16.99,3.67,3.5,2.45,5.26,6.17,5.26,11.16,0,8.26-4.99,13.03-14.98,14.33v.43c3.7.53,6.66,1.85,8.89,3.96,2.23,2.11,3.64,4.92,4.21,8.42l.94,6.19c.38,2.69.83,4.51,1.33,5.47.5.96,1.28,1.44,2.34,1.44.72,0,1.49-.23,2.3-.68.82-.46,1.58-1.04,2.3-1.76l1.22,1.3c-1.39,1.58-2.83,2.71-4.32,3.38-1.49.67-3.1,1.01-4.82,1.01-2.69,0-4.71-.65-6.05-1.94ZM464.27,37.45c3.5,0,6.23-1.07,8.17-3.2,1.94-2.14,2.92-5.29,2.92-9.47v-1.51c0-7.97-4.51-11.95-13.54-11.95h-5.62v26.14h8.06Z"/>
      <path class="cls-1" d="M503.44,65.42c-2.83-1.61-5.08-3.89-6.73-6.84-1.66-2.95-2.48-6.32-2.48-10.12s.83-7.15,2.48-10.08c1.66-2.93,3.9-5.2,6.73-6.8,2.83-1.61,5.98-2.41,9.43-2.41s6.6.8,9.43,2.41c2.83,1.61,5.08,3.88,6.73,6.8,1.66,2.93,2.48,6.29,2.48,10.08s-.83,7.16-2.48,10.12c-1.66,2.95-3.9,5.23-6.73,6.84-2.83,1.61-5.98,2.41-9.43,2.41s-6.6-.8-9.43-2.41ZM520.9,62.36c1.8-2.59,2.7-6.02,2.7-10.3v-7.2c0-4.27-.9-7.69-2.7-10.26-1.8-2.57-4.48-3.85-8.03-3.85s-6.23,1.28-8.03,3.85c-1.8,2.57-2.7,5.99-2.7,10.26v7.2c0,4.27.9,7.7,2.7,10.3,1.8,2.59,4.48,3.89,8.03,3.89s6.23-1.3,8.03-3.89Z"/>
      <path class="cls-1" d="M537.06,86.26c-1.54-1.25-2.3-2.93-2.3-5.04,0-1.44.42-2.6,1.26-3.49.84-.89,1.88-1.33,3.13-1.33.91,0,1.73.19,2.45.58.72.38,1.3.96,1.73,1.73-.72,1.01-1.08,2.06-1.08,3.17,0,.96.31,1.75.94,2.38.62.62,1.42.94,2.38.94,1.15,0,2.15-.38,2.99-1.15.84-.77,1.6-2.11,2.27-4.03l4.32-12.38-16.7-35.57-4.82-.72v-1.44h17.93v1.44l-5.04.86,12.02,25.7,8.57-24.77-6.19-1.8v-1.44h12.96v1.44l-4.9,1.8-16.13,46.87c-1.01,2.83-2.22,4.9-3.64,6.19-1.42,1.3-3.45,1.94-6.08,1.94-2.5,0-4.51-.62-6.05-1.87Z"/>
      <path class="cls-1" d="M579.4,65.42c-1.97-1.61-2.95-4-2.95-7.16,0-4.51,1.9-7.72,5.69-9.61,3.79-1.9,8.18-2.84,13.18-2.84h4.82v-5.54c0-2.5-.28-4.43-.83-5.8-.55-1.37-1.4-2.33-2.56-2.88-1.15-.55-2.71-.83-4.68-.83-2.26,0-3.94.44-5.04,1.33-1.11.89-1.66,2.08-1.66,3.56,0,1.39.67,2.3,2.02,2.74,0,1.2-.46,2.26-1.37,3.17-.91.91-1.99,1.37-3.24,1.37-1.34,0-2.42-.37-3.24-1.12-.82-.74-1.22-1.88-1.22-3.42,0-2.78,1.39-5.02,4.18-6.7,2.78-1.68,6.26-2.52,10.44-2.52,9.6,0,14.4,4.18,14.4,12.53v20.59c0,1.06.23,1.86.68,2.41.46.55,1.12.83,1.98.83.82,0,1.46-.28,1.94-.83.48-.55.72-1.31.72-2.27h1.51c0,1.68-.54,3-1.62,3.96-1.08.96-2.58,1.44-4.5,1.44-2.21,0-4.07-.64-5.58-1.91-1.51-1.27-2.29-3.25-2.34-5.94-1.15,2.45-2.92,4.37-5.29,5.76s-5,2.09-7.88,2.09c-3.07,0-5.59-.8-7.56-2.41ZM594.91,63.51c1.37-.77,2.53-1.88,3.49-3.35.96-1.46,1.54-3.23,1.73-5.29v-7.49h-4.82c-3.94,0-6.88.88-8.82,2.63-1.94,1.75-2.92,4.21-2.92,7.38,0,2.64.62,4.51,1.87,5.62,1.25,1.1,3.07,1.66,5.47,1.66,1.3,0,2.63-.38,4-1.15Z"/>
      <path class="cls-1" d="M615.4,67.11v-1.44l5.4-.72V11.67l-5.4-.72v-1.44h12.6v55.44l5.04.72v1.44h-17.64Z"/>
    </g>
  </g>
</svg>